<svg width="174" height="40" viewBox="0 0 174 40" fill="none" xmlns="http://www.w3.org/2000/svg">
<g clip-path="url(#clip0_1695_9121)">
<path d="M1.54688 20.923C1.54688 16.596 3.84558 11.1189 11.1147 11.1189C17.9783 11.1189 20.9856 16.0209 19.4982 22.7818H8.14485L9.02295 22.816C9.46281 24.1014 10.0721 25.4226 12.0662 25.4226C14.0944 25.4226 15.515 24.7123 17.3054 24.2057L19.7068 29.243C17.268 30.1862 15.6388 30.7906 12.0548 30.7906C5.70115 30.7906 1.54688 26.8807 1.54688 20.923ZM9.05227 19.0967H13.6497C13.7523 18.3881 13.5829 16.1285 11.3168 16.1285C9.08648 16.1285 9.05227 18.8605 9.05227 19.0967Z" fill="#2DA381"/>
<path d="M38.9355 18.2462L31.5311 24.1974L38.9355 23.6615V30.2545H22.3379V23.6224L29.5403 17.7054L22.3379 18.2462V11.6597H38.9355V18.2462Z" fill="#2DA381"/>
<path d="M68.5203 18.4889V30.2545H61.5558L61.6242 19.4012C61.6242 18.2185 61.691 17.0683 60.6777 17.0683C60.5148 17.0683 59.6627 17.1025 58.48 17.7444C58.5092 17.9914 58.5206 18.2403 58.5142 18.4889V30.2545H51.5497L51.6165 19.4012C51.6165 18.2185 51.6849 17.0683 50.6699 17.0683C50.507 17.0683 49.6925 17.1025 48.5749 17.7102V30.2545H41.2715V11.6596H46.8496L47.6283 13.2138C48.8453 12.0734 50.4337 11.1855 52.3952 11.1855C54.254 11.1855 56.1129 11.7948 57.2972 13.5527C58.5468 12.2673 60.2785 11.1855 62.3964 11.1855C65.4787 11.1855 68.5203 12.8424 68.5203 18.4889Z" fill="#2DA381"/>
<path d="M131.154 18.4498V30.1486H123.823L123.89 19.9959C123.89 18.8196 123.89 17.6776 122.647 17.6776C122.344 17.6776 121.067 17.7102 119.486 18.7186V30.1486H112.229V11.6612H117.776L118.817 13.7449C120.195 12.3667 122.075 11.1904 124.497 11.1904C127.86 11.1904 131.154 12.8375 131.154 18.4498ZM116.363 17.1726L116.296 17.14C115.961 18.181 115.961 17.9464 116.363 17.1726Z" fill="#2DA381"/>
<path d="M134.213 20.8708C134.213 16.5682 136.494 11.1221 143.725 11.1221C150.548 11.1221 153.541 15.9964 152.062 22.7198H140.767L141.642 22.7524C142.078 24.0297 142.683 25.3411 144.667 25.3411C146.684 25.3411 148.088 24.6357 149.88 24.1307L152.267 29.1402C149.846 30.0802 148.233 30.6863 144.67 30.6863C138.348 30.6863 134.213 26.7861 134.213 20.8708ZM141.674 19.0608H146.246C146.347 18.3554 146.179 16.1023 143.927 16.1023C141.709 16.0974 141.674 18.8197 141.674 19.0608Z" fill="#2DA381"/>
<path d="M171.791 11.6614L165.601 32.568C164.592 36.9047 162.945 41.5086 154.205 39.526L154.71 32.9036C159.012 34.6516 158.675 32.0646 159.348 30.0135L153.674 11.6614H160.795L162.846 20.602L164.828 11.6614H171.791Z" fill="#2DA381"/>
<path fill-rule="evenodd" clip-rule="evenodd" d="M90.295 1.00336e-06L90.3119 1.93555e-06C90.312 1.93555e-06 90.3121 1.93555e-06 90.3122 1.93555e-06C94.8148 -0.000588765 99.1766 1.5694 102.646 4.43942C106.115 7.3095 108.475 11.2999 109.318 15.7229C110.162 20.146 109.436 24.7246 107.265 28.6699C105.095 32.6151 101.617 35.6798 97.4299 37.3359C93.2428 38.9919 88.6091 39.1355 84.3275 37.742C80.0458 36.3485 76.3844 33.5051 73.974 29.7019C71.5637 25.8987 70.5555 21.3738 71.1231 16.907C71.6908 12.4402 73.7988 8.31131 77.0838 5.23185C77.7402 4.6165 78.7712 4.6498 79.3865 5.30622C80.0018 5.96263 79.9686 6.99361 79.3121 7.60895C76.5804 10.1698 74.8275 13.6033 74.3554 17.3177C73.8834 21.0322 74.7218 24.795 76.7261 27.9577C78.7305 31.1204 81.7753 33.4849 85.3358 34.6437C88.8964 35.8025 92.7496 35.6831 96.2315 34.306C99.7134 32.9288 102.606 30.3803 104.411 27.0995C106.215 23.8187 106.819 20.0112 106.118 16.3331C105.416 12.655 103.454 9.33669 100.569 6.94999C97.684 4.56329 94.0567 3.25772 90.3124 3.25826H90.3122C90.1131 3.25826 89.9718 3.25876 89.8401 3.26671C88.942 3.3209 88.17 2.63677 88.1158 1.73867C88.0616 0.840556 88.7457 0.0685602 89.6438 0.014364C89.8824 -3.37981e-05 90.1151 -1.42225e-05 90.295 1.00336e-06Z" fill="white"/>
<path fill-rule="evenodd" clip-rule="evenodd" d="M81.4563 2.80253C81.8028 3.13863 81.9824 3.61108 81.9467 4.09249L81.4042 11.4024C81.3376 12.2997 80.5562 12.9731 79.659 12.9065C78.7617 12.8399 78.0883 12.0585 78.1549 11.1612L78.5531 5.7956L72.7602 6.40345C71.8654 6.49735 71.0639 5.84806 70.97 4.95323C70.8761 4.0584 71.5254 3.25688 72.4202 3.16298L80.152 2.35168C80.6321 2.3013 81.1098 2.46643 81.4563 2.80253Z" fill="white"/>
<path d="M77.1716 26.3577C77.1603 26.3594 77.1487 26.3584 77.1379 26.3548C77.1271 26.3512 77.1172 26.3451 77.1092 26.337C77.1011 26.329 77.095 26.3191 77.0914 26.3083C77.0878 26.2975 77.0868 26.2859 77.0885 26.2746V24.3897C77.0906 24.3642 77.1022 24.3404 77.1211 24.323L81.2411 18.6699C81.3276 18.5521 81.3922 18.4196 81.4317 18.2789C81.4779 18.1417 81.5031 17.9984 81.5067 17.8537C81.5043 17.523 81.3795 17.205 81.1564 16.9609C81.0497 16.8304 80.9148 16.7258 80.7619 16.655C80.609 16.5842 80.4419 16.5489 80.2734 16.552C80.1076 16.5498 79.9432 16.5837 79.7918 16.6516C79.6405 16.7194 79.5057 16.8194 79.3969 16.9446C79.1541 17.2168 79.0257 17.5722 79.0385 17.9368V18.7513C79.0402 18.7626 79.0392 18.7741 79.0356 18.785C79.032 18.7958 79.0259 18.8056 79.0178 18.8137C79.0098 18.8218 78.9999 18.8278 78.9891 18.8314C78.9783 18.835 78.9667 18.8361 78.9554 18.8344H77.0885C77.0429 18.8344 77.0217 18.8067 77.0217 18.7513V17.9368C77.0152 17.3386 77.1736 16.7501 77.4795 16.236C77.7754 15.7366 78.1901 15.318 78.6866 15.0174C79.1725 14.7205 79.7309 14.5635 80.3003 14.5635C80.8697 14.5635 81.428 14.7205 81.9139 15.0174C82.3981 15.3218 82.8002 15.7402 83.0853 16.236C83.3761 16.7253 83.5287 17.2844 83.5268 17.8537C83.5157 18.6173 83.2649 19.3581 82.81 19.9715L79.6397 24.323H83.3867C83.3957 24.3219 83.4048 24.3229 83.4134 24.3259C83.422 24.3289 83.4298 24.3338 83.4362 24.3402C83.4426 24.3466 83.4475 24.3544 83.4505 24.363C83.4535 24.3716 83.4545 24.3807 83.4535 24.3897V26.2746C83.4535 26.33 83.4307 26.3577 83.3867 26.3577H77.1716Z" fill="white"/>
<path d="M87.5286 26.3576C87.4829 26.3576 87.4618 26.3299 87.4618 26.2745V24.3195H83.8598C83.8141 24.3195 83.793 24.2918 83.793 24.2364V22.4053L87.4276 14.825C87.436 14.8053 87.4501 14.7885 87.4681 14.7769C87.4861 14.7653 87.5071 14.7594 87.5286 14.7598H89.4118C89.446 14.7598 89.4623 14.781 89.4623 14.825L89.4786 22.3466H90.6467C90.658 22.345 90.6695 22.346 90.6803 22.3496C90.6912 22.3532 90.701 22.3593 90.7091 22.3674C90.7171 22.3754 90.7232 22.3853 90.7268 22.3961C90.7304 22.4069 90.7314 22.4184 90.7298 22.4297V24.2478C90.7298 24.3032 90.707 24.3309 90.663 24.3309H89.4786V26.2859C89.4786 26.3413 89.4558 26.369 89.4118 26.369L87.5286 26.3576ZM85.7609 22.3385H87.4618V18.7039L85.7609 22.3385Z" fill="white"/>
<path d="M91.6634 26.3577C91.608 26.3577 91.5852 26.33 91.5966 26.2746L93.664 14.8251C93.6672 14.8055 93.6777 14.7878 93.6935 14.7757C93.7092 14.7636 93.7289 14.758 93.7487 14.7599H95.4821C95.5375 14.7599 95.5603 14.7811 95.5489 14.8251L93.4473 26.2827C93.4375 26.3381 93.4082 26.3658 93.3642 26.3658L91.6634 26.3577Z" fill="white"/>
<path d="M97.5995 26.3576C97.5555 26.3576 97.5441 26.3299 97.5669 26.2745L101.006 16.7181H96.4444C96.4353 16.7194 96.426 16.7187 96.4173 16.7158C96.4086 16.7129 96.4006 16.7081 96.3941 16.7016C96.3876 16.6951 96.3827 16.6871 96.3799 16.6784C96.377 16.6696 96.3762 16.6604 96.3776 16.6513V14.8348C96.3776 14.7794 96.4004 14.7517 96.4444 14.7517H102.897C102.941 14.7517 102.964 14.7794 102.964 14.8348V16.7018L99.7678 26.2745C99.745 26.3299 99.7124 26.3576 99.6668 26.3576H97.5995Z" fill="white"/>
</g>
<defs>
<clipPath id="clip0_1695_9121">
<rect width="173.339" height="40" fill="white"/>
</clipPath>
</defs>
</svg>
