<svg width="174" height="40" viewBox="0 0 174 40" fill="none" xmlns="http://www.w3.org/2000/svg">
<g clip-path="url(#clip0_4_4)">
<path d="M1.54761 20.9229C1.54761 16.5959 3.84631 11.1188 11.1155 11.1188C17.979 11.1188 20.9864 16.0209 19.499 22.7817H8.14558L9.02368 22.8159C9.46354 24.1013 10.0728 25.4226 12.0669 25.4226C14.0952 25.4226 15.5158 24.7123 17.3062 24.2056L19.7075 29.2429C17.2687 30.1861 15.6396 30.7905 12.0555 30.7905C5.70189 30.7905 1.54761 26.8806 1.54761 20.9229ZM9.053 19.0966H13.6504C13.753 18.388 13.5836 16.1284 11.3175 16.1284C9.08722 16.1284 9.053 18.8604 9.053 19.0966Z" fill="#067655"/>
<path d="M38.9362 18.2462L31.5318 24.1974L38.9362 23.6615V30.2545H22.3386V23.6224L29.541 17.7054L22.3386 18.2462V11.6597H38.9362V18.2462Z" fill="#067655"/>
<path d="M68.5196 18.489V30.2546H61.555L61.6235 19.4013C61.6235 18.2186 61.6903 17.0684 60.6769 17.0684C60.514 17.0684 59.662 17.1026 58.4792 17.7445C58.5085 17.9915 58.5199 18.2403 58.5135 18.489V30.2546H51.5489L51.6157 19.4013C51.6157 18.2186 51.6841 17.0684 50.6692 17.0684C50.5063 17.0684 49.6917 17.1026 48.5741 17.7103V30.2546H41.2708V11.6597H46.8489L47.6276 13.2139C48.8446 12.0735 50.433 11.1856 52.3944 11.1856C54.2533 11.1856 56.1121 11.7949 57.2965 13.5527C58.546 12.2673 60.2778 11.1856 62.3957 11.1856C65.478 11.1856 68.5196 12.8424 68.5196 18.489Z" fill="#067655"/>
<path d="M131.155 18.4499V30.1487H123.824L123.89 19.9959C123.89 18.8197 123.89 17.6777 122.647 17.6777C122.344 17.6777 121.067 17.7103 119.487 18.7187V30.1487H112.229V11.6613H117.776L118.817 13.745C120.195 12.3667 122.075 11.1905 124.498 11.1905C127.86 11.1905 131.155 12.8375 131.155 18.4499ZM116.364 17.1727L116.297 17.1401C115.961 18.1811 115.961 17.9465 116.364 17.1727Z" fill="#067655"/>
<path d="M134.212 20.8708C134.212 16.5682 136.493 11.1221 143.725 11.1221C150.548 11.1221 153.54 15.9964 152.061 22.7198H140.766L141.641 22.7524C142.078 24.0297 142.682 25.3411 144.667 25.3411C146.683 25.3411 148.088 24.6357 149.88 24.1307L152.266 29.1402C149.846 30.0802 148.233 30.6863 144.67 30.6863C138.347 30.6863 134.212 26.7861 134.212 20.8708ZM141.674 19.0608H146.245C146.346 18.3554 146.178 16.1023 143.927 16.1023C141.708 16.0974 141.674 18.8197 141.674 19.0608Z" fill="#067655"/>
<path d="M171.792 11.6613L165.601 32.5679C164.592 36.9047 162.945 41.5086 154.205 39.5259L154.71 32.9035C159.013 34.6516 158.676 32.0645 159.348 30.0135L153.674 11.6613H160.795L162.846 20.602L164.829 11.6613H171.792Z" fill="#067655"/>
<path fill-rule="evenodd" clip-rule="evenodd" d="M90.2952 1.00336e-06L90.3122 1.93555e-06C90.3122 1.93555e-06 90.3123 1.93555e-06 90.3124 1.93555e-06C94.815 -0.000588765 99.1768 1.5694 102.646 4.43942C106.116 7.3095 108.475 11.2999 109.319 15.7229C110.162 20.146 109.436 24.7246 107.266 28.6699C105.096 32.6151 101.617 35.6798 97.4301 37.3359C93.243 38.9919 88.6094 39.1355 84.3277 37.742C80.0461 36.3485 76.3846 33.5051 73.9743 29.7019C71.5639 25.8987 70.5557 21.3738 71.1234 16.907C71.691 12.4402 73.799 8.31131 77.084 5.23185C77.7404 4.6165 78.7714 4.6498 79.3867 5.30622C80.0021 5.96263 79.9688 6.99361 79.3124 7.60895C76.5806 10.1698 74.8277 13.6033 74.3556 17.3177C73.8836 21.0322 74.722 24.795 76.7264 27.9577C78.7308 31.1204 81.7756 33.4849 85.3361 34.6437C88.8966 35.8025 92.7499 35.6831 96.2318 34.306C99.7137 32.9288 102.606 30.3803 104.411 27.0995C106.215 23.8187 106.819 20.0112 106.118 16.3331C105.417 12.655 103.454 9.33669 100.569 6.94999C97.6843 4.56329 94.057 3.25772 90.3126 3.25826H90.3124C90.1133 3.25826 89.972 3.25876 89.8403 3.26671C88.9422 3.3209 88.1702 2.63677 88.116 1.73867C88.0618 0.840556 88.746 0.0685602 89.6441 0.014364C89.8827 -3.37981e-05 90.1153 -1.42225e-05 90.2952 1.00336e-06Z" fill="#303030"/>
<path fill-rule="evenodd" clip-rule="evenodd" d="M81.4568 2.80241C81.8033 3.1385 81.9829 3.61096 81.9472 4.09236L81.4047 11.4023C81.3381 12.2995 80.5567 12.9729 79.6595 12.9064C78.7622 12.8398 78.0888 12.0584 78.1554 11.1611L78.5536 5.79548L72.7607 6.40333C71.8659 6.49722 71.0643 5.84794 70.9705 4.95311C70.8766 4.05828 71.5258 3.25676 72.4207 3.16286L80.1525 2.35156C80.6326 2.30118 81.1103 2.46631 81.4568 2.80241Z" fill="#303030"/>
<path d="M77.1718 26.3577C77.1605 26.3593 77.149 26.3583 77.1382 26.3547C77.1273 26.3511 77.1175 26.345 77.1094 26.337C77.1014 26.3289 77.0953 26.3191 77.0917 26.3082C77.0881 26.2974 77.0871 26.2859 77.0887 26.2746V24.3897C77.0908 24.3641 77.1025 24.3403 77.1213 24.3229L81.2414 18.6698C81.3279 18.552 81.3925 18.4196 81.432 18.2788C81.4781 18.1416 81.5034 17.9983 81.5069 17.8536C81.5045 17.523 81.3797 17.2049 81.1566 16.9609C81.05 16.8304 80.9151 16.7258 80.7621 16.6549C80.6092 16.5841 80.4422 16.5489 80.2737 16.5519C80.1078 16.5497 79.9435 16.5837 79.7921 16.6515C79.6407 16.7193 79.5059 16.8193 79.3972 16.9446C79.1544 17.2168 79.026 17.5722 79.0388 17.9367V18.7513C79.0404 18.7626 79.0394 18.7741 79.0358 18.7849C79.0322 18.7957 79.0261 18.8056 79.0181 18.8136C79.01 18.8217 79.0002 18.8278 78.9893 18.8314C78.9785 18.835 78.967 18.836 78.9557 18.8344H77.0887C77.0431 18.8344 77.0219 18.8067 77.0219 18.7513V17.9367C77.0155 17.3385 77.1739 16.7501 77.4797 16.2359C77.7756 15.7365 78.1903 15.3179 78.6869 15.0173C79.1728 14.7205 79.7311 14.5634 80.3005 14.5634C80.8699 14.5634 81.4283 14.7205 81.9142 15.0173C82.3983 15.3217 82.8005 15.7401 83.0855 16.2359C83.3764 16.7253 83.5289 17.2844 83.527 17.8536C83.5159 18.6172 83.2652 19.3581 82.8102 19.9715L79.6399 24.3229H83.3869C83.3959 24.3218 83.4051 24.3229 83.4137 24.3258C83.4222 24.3288 83.43 24.3337 83.4365 24.3401C83.4429 24.3466 83.4478 24.3544 83.4508 24.3629C83.4537 24.3715 83.4548 24.3807 83.4537 24.3897V26.2746C83.4537 26.33 83.4309 26.3577 83.3869 26.3577H77.1718Z" fill="#303030"/>
<path d="M87.5283 26.3577C87.4827 26.3577 87.4615 26.33 87.4615 26.2746V24.3196H83.8595C83.8139 24.3196 83.7927 24.2919 83.7927 24.2366V22.4054L87.4273 14.8251C87.4357 14.8054 87.4499 14.7887 87.4679 14.7771C87.4858 14.7654 87.5069 14.7595 87.5283 14.7599H89.4116C89.4458 14.7599 89.4621 14.7811 89.4621 14.8251L89.4784 22.3468H90.6465C90.6578 22.3451 90.6693 22.3461 90.6801 22.3497C90.6909 22.3533 90.7008 22.3594 90.7088 22.3675C90.7169 22.3755 90.723 22.3854 90.7266 22.3962C90.7302 22.407 90.7312 22.4186 90.7295 22.4298V24.248C90.7295 24.3033 90.7067 24.331 90.6628 24.331H89.4784V26.286C89.4784 26.3414 89.4556 26.3691 89.4116 26.3691L87.5283 26.3577ZM85.7607 22.3386H87.4615V18.704L85.7607 22.3386Z" fill="#303030"/>
<path d="M91.6629 26.3577C91.6075 26.3577 91.5847 26.33 91.5961 26.2746L93.6635 14.8251C93.6667 14.8055 93.6772 14.7879 93.693 14.7758C93.7087 14.7637 93.7284 14.758 93.7482 14.7599H95.4816C95.537 14.7599 95.5598 14.7811 95.5484 14.8251L93.4468 26.2827C93.437 26.3381 93.4077 26.3658 93.3637 26.3658L91.6629 26.3577Z" fill="#303030"/>
<path d="M97.5995 26.3577C97.5555 26.3577 97.5441 26.33 97.5669 26.2746L101.006 16.7181H96.4444C96.4353 16.7195 96.426 16.7187 96.4173 16.7159C96.4086 16.713 96.4006 16.7081 96.3941 16.7016C96.3876 16.6951 96.3827 16.6872 96.3799 16.6784C96.377 16.6697 96.3762 16.6604 96.3776 16.6513V14.8349C96.3776 14.7795 96.4004 14.7518 96.4444 14.7518H102.897C102.941 14.7518 102.964 14.7795 102.964 14.8349V16.7018L99.7678 26.2746C99.745 26.33 99.7124 26.3577 99.6668 26.3577H97.5995Z" fill="#303030"/>
</g>
<defs>
<clipPath id="clip0_4_4">
<rect width="173.339" height="40" fill="white"/>
</clipPath>
</defs>
</svg>
