<svg width="12" height="12" viewBox="0 0 12 12" fill="none" xmlns="http://www.w3.org/2000/svg">
<path d="M3.16039 2.06622V1.03095C3.16039 0.94122 3.26351 0.891666 3.33316 0.946577L9.37066 5.6622C9.42196 5.70209 9.46346 5.75318 9.49202 5.81155C9.52057 5.86993 9.53541 5.93405 9.53541 5.99903C9.53541 6.06402 9.52057 6.12814 9.49202 6.18652C9.46346 6.24489 9.42196 6.29597 9.37066 6.33586L3.33316 11.0515C3.26217 11.1064 3.16039 11.0568 3.16039 10.9671V9.93185C3.16039 9.86622 3.19119 9.80327 3.24209 9.7631L8.06352 5.9997L3.24209 2.23497C3.19119 2.19479 3.16039 2.13185 3.16039 2.06622V2.06622Z" fill="#D9D9D9"/>
</svg>
