<svg width="24" height="24" viewBox="0 0 24 24" fill="none" xmlns="http://www.w3.org/2000/svg">
<g clip-path="url(#clip0_217_911)">
<path fill-rule="evenodd" clip-rule="evenodd" d="M5.18396 5.12843C6.59275 2.68834 9.11466 1.29183 11.7379 1.20999C14.526 1.13011 17.2678 2.54392 18.7603 5.12903C20.3902 7.95205 20.0653 11.368 18.2052 13.8079L18.201 13.8103L18.2019 13.8119C17.5734 14.6345 16.7878 15.3242 15.8906 15.8407C15.4568 16.092 15.0009 16.3003 14.5295 16.4634C14.0262 16.6366 13.506 16.7586 12.9775 16.8272L12.977 16.8264L12.9751 16.8275C12.4518 16.8952 11.9203 16.9104 11.389 16.871C11.2495 16.8605 11.1104 16.8463 10.9719 16.8284L10.9683 16.8264L10.9675 16.8278C10.8017 16.8064 10.6368 16.7796 10.4729 16.7477C9.62328 16.5818 8.80594 16.2756 8.05476 15.8407C7.15754 15.3243 6.37181 14.6349 5.74318 13.8124L5.74439 13.8103L5.73916 13.8073C3.87901 11.3674 3.55409 7.95145 5.18396 5.12843ZM18.8502 14.9349C17.8186 16.1425 16.5098 17.0276 15.0755 17.5498C14.5988 17.7246 14.1138 17.8568 13.6251 17.9476L16.0334 22.119L17.4615 19.23C17.5143 19.1231 17.5975 19.0343 17.7007 18.9747C17.8039 18.9151 17.9224 18.8875 18.0414 18.8952L21.2568 19.1032L18.8502 14.9349ZM12.3158 18.0927C12.2278 18.096 12.1397 18.098 12.0518 18.0988C11.9114 18.1001 11.7708 18.0982 11.6301 18.093L8.39387 23.6983C8.33928 23.7929 8.26004 23.8709 8.1646 23.924C8.06916 23.977 7.96109 24.0032 7.85194 23.9997C7.74279 23.9962 7.63665 23.9631 7.54483 23.9039C7.45302 23.8448 7.37898 23.7619 7.33061 23.664L5.581 20.1254L1.64225 20.3798C1.53327 20.3868 1.42442 20.3642 1.3273 20.3142C1.23019 20.2643 1.14846 20.1889 1.09083 20.0962C1.0332 20.0034 1.00183 19.8967 1.00008 19.7875C0.998322 19.6783 1.02624 19.5707 1.08086 19.4761L4.31509 13.8743C4.25302 13.7757 4.19257 13.6755 4.13381 13.5737C1.63531 9.24615 3.11814 3.71216 7.44566 1.21367C8.8741 0.388955 10.434 -0.00197224 11.9728 7.42146e-06C13.5115 -0.00193921 15.0713 0.388989 16.4997 1.21367C20.8272 3.71216 22.31 9.24615 19.8116 13.5737C19.7529 13.6753 19.6926 13.7753 19.6306 13.8737L22.865 19.4758C22.9196 19.5704 22.9476 19.678 22.9458 19.7872C22.944 19.8964 22.9127 20.0031 22.8551 20.0958C22.7974 20.1886 22.7157 20.264 22.6186 20.3139C22.5215 20.3639 22.4126 20.3865 22.3036 20.3795L18.3644 20.1254L16.6153 23.6637C16.5669 23.7616 16.4929 23.8445 16.401 23.9036C16.3092 23.9628 16.2031 23.9959 16.0939 23.9994C15.9848 24.0029 15.8767 23.9767 15.7813 23.9237C15.6858 23.8706 15.6066 23.7926 15.552 23.698L12.3158 18.0927ZM9.31914 17.7007C7.70975 17.208 6.23396 16.268 5.09551 14.9354L2.68905 19.1035L5.90505 18.8958C6.02396 18.8881 6.1425 18.9157 6.2457 18.9753C6.34889 19.0349 6.43213 19.1237 6.48491 19.2306L7.91248 22.1193L10.3211 17.9474C9.98214 17.8842 9.64762 17.8018 9.31914 17.7007ZM8.76008 12.8603C8.71303 13.1453 8.97724 13.3686 9.21008 13.2412H9.20947L11.857 11.7897L14.5056 13.2412C14.7385 13.3686 15.0027 13.1453 14.9556 12.8603L14.455 9.81701L16.5795 7.65775C16.7785 7.45572 16.6754 7.08641 16.4094 7.04652L13.4549 6.59871L12.1374 3.81471C12.0186 3.56378 11.6971 3.56378 11.5783 3.81471L10.2609 6.59871L7.30635 7.04652C7.04034 7.08641 6.93719 7.45572 7.13564 7.65775L9.26075 9.81701L8.76008 12.8603Z" fill="white"/>
</g>
<defs>
<clipPath id="clip0_217_911">
<rect width="24" height="24" fill="white"/>
</clipPath>
</defs>
</svg>
