<svg width="70" height="70" viewBox="0 0 70 70" fill="none" xmlns="http://www.w3.org/2000/svg">
<g clip-path="url(#clip0_147_239)">
<path d="M6.80546 26.3667L34.9999 10.1694L63.1944 26.3667C63.6387 26.5991 64.1558 26.6509 64.6374 26.5112C65.1191 26.3714 65.5281 26.051 65.7791 25.6168C66.0301 25.1826 66.1036 24.6682 65.9843 24.1811C65.8649 23.694 65.562 23.2718 65.1388 23.0028L34.9999 5.67776L4.86102 23.0028C4.62865 23.1243 4.42327 23.2916 4.25723 23.4946C4.09119 23.6976 3.96794 23.9321 3.89487 24.1839C3.8218 24.4358 3.80044 24.6998 3.83206 24.9602C3.86368 25.2205 3.94764 25.4718 4.07888 25.6988C4.21012 25.9258 4.38592 26.124 4.59573 26.2813C4.80553 26.4387 5.045 26.5519 5.29971 26.6143C5.55443 26.6767 5.81913 26.6869 6.0779 26.6444C6.33667 26.6018 6.58415 26.5073 6.80546 26.3667Z" fill="#067655"/>
<path d="M7.77783 50.5556C7.77783 51.0713 7.98269 51.5659 8.34735 51.9305C8.712 52.2952 9.20658 52.5 9.72228 52.5H60.2778C60.7935 52.5 61.2881 52.2952 61.6528 51.9305C62.0174 51.5659 62.2223 51.0713 62.2223 50.5556C62.2223 50.0399 62.0174 49.5453 61.6528 49.1806C61.2881 48.816 60.7935 48.6111 60.2778 48.6111H54.4445V34.2806H50.5556V48.6111H36.9445V34.2806H33.0556V48.6111H19.4445V34.2806H15.5556V48.6111H9.72228C9.20658 48.6111 8.712 48.816 8.34735 49.1806C7.98269 49.5453 7.77783 50.0399 7.77783 50.5556Z" fill="#067655"/>
<path d="M9.76123 27.2222H60.3168V31.1111H9.76123V27.2222Z" fill="#067655"/>
<path d="M64.1667 56.3889H5.83336C5.31766 56.3889 4.82308 56.5938 4.45843 56.9584C4.09378 57.3231 3.88892 57.8177 3.88892 58.3334C3.88892 58.8491 4.09378 59.3436 4.45843 59.7083C4.82308 60.0729 5.31766 60.2778 5.83336 60.2778H64.1667C64.6824 60.2778 65.177 60.0729 65.5416 59.7083C65.9063 59.3436 66.1111 58.8491 66.1111 58.3334C66.1111 57.8177 65.9063 57.3231 65.5416 56.9584C65.177 56.5938 64.6824 56.3889 64.1667 56.3889Z" fill="#067655"/>
<path d="M43.0694 22.5167H49.3111L36.2638 15.0111C36.0274 14.8746 35.7591 14.8027 35.486 14.8027C35.213 14.8027 34.9447 14.8746 34.7083 15.0111L21.6416 22.5167H27.8833L35.4666 18.1611L43.0694 22.5167Z" fill="#067655"/>
</g>
<defs>
<clipPath id="clip0_147_239">
<rect width="70" height="70" fill="white"/>
</clipPath>
</defs>
</svg>
