<svg width="24" height="24" viewBox="0 0 24 24" fill="none" xmlns="http://www.w3.org/2000/svg">
<path d="M9.36235 16.9707L9.6 16.7092V15.42L5.70625 7.19995H3.89375L0 15.42V16.772L0.2117 17.0018C0.793147 17.6314 1.49847 18.134 2.2834 18.478C3.06832 18.822 3.9159 19 4.7729 19.0009H4.7939C5.65443 18.9971 6.5048 18.8147 7.29118 18.4652C8.07756 18.1157 8.78283 17.6068 9.36235 16.9707ZM8 16.0804C7.1464 16.9282 5.99154 17.4031 4.78845 17.401H4.77195C3.59003 17.4069 2.45228 16.9522 1.6 16.1333V15.78L4.8 9.02435L8 15.78V16.0804ZM20.1063 7.19995H18.2938L14.4 15.42V16.772L14.6117 17.0018C15.1931 17.6314 15.8985 18.134 16.6834 18.478C17.4683 18.822 18.3159 19 19.1729 19.0009H19.1939C20.0544 18.9971 20.9048 18.8146 21.6912 18.4651C22.4776 18.1157 23.1828 17.6067 23.7624 16.9705L24 16.7092V15.42L20.1063 7.19995ZM22.4 16.0804C21.5464 16.9282 20.3915 17.4031 19.1885 17.401H19.1719C17.99 17.4069 16.8523 16.9522 16 16.1333V15.78L19.2 9.02435L22.4 15.78V16.0804Z" fill="white" fill-opacity="0.87"/>
<path d="M12.8 7.48296C13.245 7.34919 13.65 7.10718 13.9786 6.77858C14.3072 6.44999 14.5492 6.04505 14.683 5.60001H20V4.00001H14.683C14.5108 3.42218 14.1566 2.91538 13.6732 2.55502C13.1898 2.19466 12.6029 2 12 2C11.3971 2 10.8102 2.19466 10.3268 2.55502C9.8434 2.91538 9.48925 3.42218 9.31705 4.00001H4V5.60001H9.31705C9.45082 6.04505 9.69283 6.44999 10.0214 6.77858C10.35 7.10718 10.755 7.34919 11.2 7.48296V20.8H6V22.4H18V20.8H12.8V7.48296ZM10.8 4.80001C10.8 4.56268 10.8704 4.33067 11.0022 4.13333C11.1341 3.93599 11.3215 3.78218 11.5408 3.69136C11.7601 3.60053 12.0013 3.57677 12.2341 3.62307C12.4669 3.66937 12.6807 3.78366 12.8485 3.95148C13.0164 4.11931 13.1306 4.33313 13.1769 4.5659C13.2232 4.79868 13.1995 5.03996 13.1087 5.25923C13.0178 5.4785 12.864 5.66592 12.6667 5.79778C12.4693 5.92963 12.2373 6.00001 12 6.00001C11.6817 6.00001 11.3765 5.87358 11.1515 5.64854C10.9264 5.4235 10.8 5.11827 10.8 4.80001Z" fill="white" fill-opacity="0.87"/>
</svg>
