<svg width="70" height="70" viewBox="0 0 70 70" fill="none" xmlns="http://www.w3.org/2000/svg">
<path d="M35 20.4181C35.7735 20.4181 36.5154 20.1108 37.0624 19.5639C37.6094 19.0169 37.9167 18.275 37.9167 17.5015C37.9167 16.7279 37.6094 15.986 37.0624 15.4391C36.5154 14.8921 35.7735 14.5848 35 14.5848C34.2265 14.5848 33.4846 14.8921 32.9376 15.4391C32.3906 15.986 32.0833 16.7279 32.0833 17.5015C32.0833 18.275 32.3906 19.0169 32.9376 19.5639C33.4846 20.1108 34.2265 20.4181 35 20.4181ZM36.9629 6.48521C36.396 6.06198 35.7075 5.83332 35 5.83332C34.2925 5.83332 33.604 6.06198 33.0371 6.48521L9.78542 23.8423C7.81667 25.3108 8.85646 28.439 11.3108 28.439H13.125V45.9463C11.8158 46.5672 10.7098 47.547 9.93531 48.7717C9.16086 49.9963 8.74984 51.4156 8.75 52.8646V57.9688C8.75 58.975 9.56667 59.7917 10.5729 59.7917H59.4271C60.4333 59.7917 61.25 58.975 61.25 57.9688V52.8646C61.2502 51.4156 60.8391 49.9963 60.0647 48.7717C59.2902 47.547 58.1842 46.5672 56.875 45.9463V28.4375H58.6892C61.145 28.4375 62.1833 25.3094 60.216 23.8408L36.9629 6.48521ZM53.2292 45.2083H46.6667V28.4375H53.2292V45.2083ZM43.0208 45.2083H36.8229V28.4375H43.0208V45.2083ZM33.1771 45.2083H26.9792V28.4375H33.1771V45.2083ZM23.3333 45.2083H16.7708V28.4375H23.3333V45.2083ZM14.6038 24.7931L35 9.56813L55.3948 24.7931H14.6038ZM12.3958 52.866C12.3958 51.8024 12.8184 50.7823 13.5705 50.0303C14.3226 49.2782 15.3426 48.8556 16.4062 48.8556H53.5938C54.6574 48.8556 55.6774 49.2782 56.4295 50.0303C57.1816 50.7823 57.6042 51.8024 57.6042 52.866V56.1473H12.3958V52.866Z" fill="#067655"/>
</svg>
