<svg width="70" height="70" viewBox="0 0 70 70" fill="none" xmlns="http://www.w3.org/2000/svg">
<path d="M62.2282 28.7597L51.0382 27.0357L44.2189 15.8955C43.8609 15.3124 43.3585 14.8316 42.7603 14.4995C42.1621 14.1675 41.4883 13.9955 40.8041 14.0001L12.2245 14.2278C11.3999 14.2348 10.5979 14.4984 9.93004 14.9821C9.26215 15.4658 8.76152 16.1456 8.49771 16.9269L5.25 26.5573V48.6994H12.0684C12.5985 50.4224 13.667 51.9301 15.117 53.0011C16.5671 54.0721 18.3223 54.65 20.125 54.65C21.9277 54.65 23.6829 54.0721 25.1329 53.0011C26.583 51.9301 27.6515 50.4224 28.1815 48.6994H40.8268C41.3568 50.4224 42.4253 51.9301 43.8754 53.0011C45.3254 54.0721 47.0806 54.65 48.8833 54.65C50.686 54.65 52.4412 54.0721 53.8913 53.0011C55.3413 51.9301 56.4098 50.4224 56.9399 48.6994H64.75V31.7C64.7532 30.9886 64.5001 30.2999 64.037 29.7599C63.5739 29.2199 62.9317 28.8648 62.2282 28.7597ZM31.0333 18.0445L40.8357 17.9664L46.3023 26.8972L31.0333 26.8919V18.0445ZM12.2562 18.1942L27.0667 18.0762V26.8905L9.32587 26.8842L12.2562 18.1942ZM20.125 50.6827C19.2424 50.6827 18.3796 50.421 17.6458 49.9306C16.9119 49.4403 16.3399 48.7433 16.0022 47.9279C15.6644 47.1125 15.5761 46.2152 15.7482 45.3496C15.9204 44.484 16.3454 43.6888 16.9695 43.0647C17.5936 42.4406 18.3888 42.0156 19.2544 41.8434C20.12 41.6713 21.0173 41.7596 21.8327 42.0974C22.6481 42.4351 23.3451 43.0071 23.8354 43.741C24.3258 44.4748 24.5875 45.3376 24.5875 46.2202C24.5862 47.4033 24.1156 48.5376 23.279 49.3742C22.4424 50.2108 21.3081 50.6814 20.125 50.6827ZM48.8833 50.6827C48.0007 50.6827 47.1379 50.421 46.4041 49.9306C45.6702 49.4403 45.0983 48.7433 44.7605 47.9279C44.4227 47.1125 44.3344 46.2152 44.5066 45.3496C44.6787 44.484 45.1038 43.6888 45.7278 43.0647C46.3519 42.4406 47.1471 42.0156 48.0127 41.8434C48.8784 41.6713 49.7756 41.7596 50.591 42.0974C51.4064 42.4351 52.1034 43.0071 52.5937 43.741C53.0841 44.4748 53.3458 45.3376 53.3458 46.2202C53.3445 47.4033 52.8739 48.5376 52.0373 49.3742C51.2007 50.2108 50.0664 50.6814 48.8833 50.6827ZM60.7833 44.7327H57.1783C56.8299 42.7862 55.808 41.0243 54.2916 39.7553C52.7751 38.4862 50.8607 37.7909 48.8833 37.7909C46.9059 37.7909 44.9915 38.4862 43.4751 39.7553C41.9586 41.0243 40.9367 42.7862 40.5883 44.7327H28.42C28.0716 42.7862 27.0497 41.0243 25.5332 39.7553C24.0168 38.4862 22.1024 37.7909 20.125 37.7909C18.1476 37.7909 16.2332 38.4862 14.7167 39.7553C13.2003 41.0243 12.1784 42.7862 11.83 44.7327H9.21666V30.8526L50.1881 30.9182L60.7833 32.5506V44.7327Z" fill="#067655"/>
</svg>
