<svg width="70" height="70" viewBox="0 0 70 70" fill="none" xmlns="http://www.w3.org/2000/svg">
<g clip-path="url(#clip0_147_163)">
<path d="M38.3442 20.3583C34.2395 19.5563 29.9928 19.9062 26.0748 21.3694C25.8845 21.4448 25.711 21.5568 25.5641 21.6992C25.4171 21.8416 25.2997 22.0116 25.2185 22.1993C25.0544 22.5786 25.0476 23.0075 25.1998 23.3917C25.3519 23.7759 25.6504 24.0839 26.0297 24.248C26.4089 24.4121 26.8378 24.4188 27.222 24.2667C30.5955 22.9911 34.255 22.6682 37.7998 23.3333C38.0076 23.388 38.2244 23.3991 38.4367 23.3658C38.649 23.3325 38.852 23.2556 39.0331 23.1399C39.2142 23.0242 39.3693 22.8723 39.4888 22.6937C39.6082 22.5151 39.6893 22.3136 39.7271 22.1021C39.7648 21.8906 39.7583 21.6735 39.708 21.4646C39.6576 21.2558 39.5646 21.0596 39.4347 20.8884C39.3047 20.7173 39.1408 20.5749 38.9531 20.4703C38.7654 20.3657 38.5581 20.3011 38.3442 20.2806V20.3583Z" fill="#067655"/>
<path d="M49.35 35.1361C50.8105 35.1361 51.9945 33.9522 51.9945 32.4917C51.9945 31.0312 50.8105 29.8472 49.35 29.8472C47.8895 29.8472 46.7056 31.0312 46.7056 32.4917C46.7056 33.9522 47.8895 35.1361 49.35 35.1361Z" fill="#067655"/>
<path d="M69.0474 36.225C68.8672 35.9584 68.6237 35.7406 68.3386 35.5913C68.0535 35.442 67.7358 35.3658 67.4141 35.3694C65.8431 35.1514 64.4018 34.379 63.3502 33.1917C61.3265 30.9798 59.6068 28.508 58.2363 25.8417L63.8363 17.0917C64.1761 16.5846 64.3843 16.0009 64.442 15.3932C64.4997 14.7855 64.4051 14.1731 64.1668 13.6111C63.9282 13.0999 63.5675 12.6551 63.1165 12.316C62.6656 11.977 62.1382 11.754 61.5807 11.6667C58.0196 11.1867 54.395 11.6911 51.1002 13.125C49.2119 13.9567 47.4351 15.0215 45.8113 16.2944C42.6309 14.8683 39.2443 13.9561 35.778 13.5917C21.9918 12.25 9.39185 21.1944 7.77796 33.0556C7.149 32.7726 6.5857 32.3621 6.12378 31.8499C5.66186 31.3378 5.3114 30.7353 5.09462 30.0806C4.95598 29.6316 4.90865 29.1594 4.9554 28.6919C5.00215 28.2244 5.14205 27.7709 5.36685 27.3583C5.56843 27.0119 5.85654 26.7238 6.20296 26.5222C6.43915 26.3792 6.64487 26.1911 6.80837 25.9686C6.97186 25.7461 7.08993 25.4936 7.15584 25.2255C7.22174 24.9573 7.23419 24.6788 7.19247 24.4059C7.15075 24.133 7.05567 23.8709 6.91268 23.6347C6.76968 23.3985 6.58157 23.1928 6.35907 23.0293C6.13657 22.8658 5.88405 22.7477 5.61592 22.6818C5.34779 22.6159 5.0693 22.6035 4.79636 22.6452C4.52343 22.6869 4.26138 22.782 4.02518 22.925C3.08391 23.5027 2.30716 24.313 1.76962 25.2778C1.26987 26.1832 0.95571 27.1793 0.845532 28.2076C0.735354 29.2359 0.831368 30.2759 1.12796 31.2667C1.49302 32.4673 2.09842 33.5811 2.90735 34.5404C3.71627 35.4998 4.71183 36.2846 5.83351 36.8472L7.6224 37.7417C7.84588 42.4749 9.05101 47.1101 11.1613 51.3528L11.4918 52.0917C13.1783 55.6585 15.3294 58.9864 17.8891 61.9889C18.0713 62.1963 18.2956 62.3625 18.547 62.4765C18.7985 62.5905 19.0713 62.6497 19.3474 62.65H28.1363C28.4548 62.6484 28.768 62.5686 29.0484 62.4177C29.3288 62.2667 29.5678 62.0492 29.7445 61.7842C29.9211 61.5192 30.03 61.2149 30.0615 60.898C30.093 60.581 30.0462 60.2612 29.9252 59.9667L29.1668 58.2167L31.4613 58.4694C34.0476 58.7251 36.6528 58.7251 39.2391 58.4694C39.9585 59.6361 40.7363 60.8028 41.5918 61.95C41.7709 62.1951 42.0049 62.3948 42.275 62.5333C42.5451 62.6717 42.8439 62.745 43.1474 62.7472H51.5863C51.9072 62.747 52.2231 62.6673 52.5058 62.5152C52.7884 62.3632 53.029 62.1436 53.2062 61.876C53.3833 61.6083 53.4914 61.301 53.5209 60.9815C53.5504 60.6619 53.5003 60.34 53.3752 60.0444C53.0446 59.2667 52.7141 58.4306 52.4613 57.7111C52.1113 56.6806 51.8391 55.7667 51.6252 54.8917C53.7726 53.7323 55.7434 52.2722 57.478 50.5556C59.4153 50.7897 61.3739 50.7897 63.3113 50.5556C63.6474 50.5047 63.9643 50.3667 64.2305 50.1551C64.4966 49.9436 64.7026 49.666 64.828 49.35L69.2224 38.0528C69.346 37.7573 69.3948 37.4358 69.3642 37.1169C69.3337 36.7981 69.2249 36.4917 69.0474 36.225ZM61.6974 46.8028C60.1709 46.8897 58.6396 46.818 57.128 46.5889C55.4066 46.2981 53.7447 45.7266 52.2085 44.8972C51.7536 44.6716 51.2284 44.633 50.7453 44.7895C50.2623 44.946 49.8596 45.2853 49.6234 45.7349C49.3872 46.1844 49.3362 46.7085 49.4814 47.1951C49.6266 47.6817 49.9563 48.0922 50.4002 48.3389C51.2128 48.765 52.0505 49.1416 52.9085 49.4667C51.8482 50.372 50.671 51.1306 49.4085 51.7222L47.3474 52.6556C47.3474 52.6556 48.3002 56.9139 48.9418 58.8H44.3141C43.8474 58.1389 41.4946 54.2111 41.4946 54.2111L40.1918 54.3861C37.4553 54.7807 34.6824 54.859 31.928 54.6194C30.6446 54.5028 28.5057 54.2306 26.8335 53.9389L23.8196 53.4139C23.8196 53.4139 25.0446 58.1389 25.278 58.7417H20.2613C18.2121 56.2325 16.4753 53.4837 15.0891 50.5556L14.7391 49.7972C12.2127 44.9341 11.1458 39.4443 11.6668 33.9889C12.7168 23.8972 23.5668 16.275 35.3696 17.3833C38.803 17.7682 42.1445 18.7417 45.2474 20.2611L46.453 20.825L47.4252 19.9111C48.9393 18.5581 50.6506 17.4435 52.5002 16.6056C54.9474 15.5442 57.6206 15.1098 60.278 15.3417L53.7057 25.6278L54.1918 26.6C55.8901 30.0205 58.0562 33.188 60.628 36.0111C61.8225 37.1785 63.2368 38.0972 64.7891 38.7139L61.6974 46.8028Z" fill="#067655"/>
</g>
<defs>
<clipPath id="clip0_147_163">
<rect width="70" height="70" fill="white"/>
</clipPath>
</defs>
</svg>
