<svg width="70" height="70" viewBox="0 0 70 70" fill="none" xmlns="http://www.w3.org/2000/svg">
<path d="M58.625 15.6042C59.6693 15.6042 60.6708 16.019 61.4092 16.7574C62.1477 17.4959 62.5625 18.4974 62.5625 19.5417V51.0417C62.5625 52.086 62.1477 53.0875 61.4092 53.8259C60.6708 54.5643 59.6693 54.9792 58.625 54.9792H11.375C10.3307 54.9792 9.32919 54.5643 8.59077 53.8259C7.85234 53.0875 7.4375 52.086 7.4375 51.0417V19.5417C7.4375 18.4974 7.85234 17.4959 8.59077 16.7574C9.32919 16.019 10.3307 15.6042 11.375 15.6042H58.625ZM11.375 11.6667C9.28642 11.6667 7.28338 12.4964 5.80653 13.9732C4.32969 15.4501 3.5 17.4531 3.5 19.5417L3.5 51.0417C3.5 53.1303 4.32969 55.1333 5.80653 56.6101C7.28338 58.087 9.28642 58.9167 11.375 58.9167H58.625C60.7136 58.9167 62.7166 58.087 64.1935 56.6101C65.6703 55.1333 66.5 53.1303 66.5 51.0417V19.5417C66.5 17.4531 65.6703 15.4501 64.1935 13.9732C62.7166 12.4964 60.7136 11.6667 58.625 11.6667H11.375Z" fill="#067655"/>
<path d="M11.375 25.4479C11.375 24.9258 11.5824 24.425 11.9516 24.0558C12.3208 23.6866 12.8216 23.4792 13.3438 23.4792H21.2188C21.7409 23.4792 22.2417 23.6866 22.6109 24.0558C22.9801 24.425 23.1875 24.9258 23.1875 25.4479V29.3854C23.1875 29.9076 22.9801 30.4083 22.6109 30.7775C22.2417 31.1467 21.7409 31.3542 21.2188 31.3542H13.3438C12.8216 31.3542 12.3208 31.1467 11.9516 30.7775C11.5824 30.4083 11.375 29.9076 11.375 29.3854V25.4479ZM11.375 37.2604C11.375 36.7383 11.5824 36.2375 11.9516 35.8683C12.3208 35.4991 12.8216 35.2917 13.3438 35.2917H33.0312C33.5534 35.2917 34.0542 35.4991 34.4234 35.8683C34.7926 36.2375 35 36.7383 35 37.2604C35 37.7826 34.7926 38.2833 34.4234 38.6525C34.0542 39.0218 33.5534 39.2292 33.0312 39.2292H13.3438C12.8216 39.2292 12.3208 39.0218 11.9516 38.6525C11.5824 38.2833 11.375 37.7826 11.375 37.2604ZM11.375 45.1354C11.375 44.6133 11.5824 44.1125 11.9516 43.7433C12.3208 43.3741 12.8216 43.1667 13.3438 43.1667H17.2812C17.8034 43.1667 18.3042 43.3741 18.6734 43.7433C19.0426 44.1125 19.25 44.6133 19.25 45.1354C19.25 45.6576 19.0426 46.1583 18.6734 46.5275C18.3042 46.8968 17.8034 47.1042 17.2812 47.1042H13.3438C12.8216 47.1042 12.3208 46.8968 11.9516 46.5275C11.5824 46.1583 11.375 45.6576 11.375 45.1354ZM23.1875 45.1354C23.1875 44.6133 23.3949 44.1125 23.7641 43.7433C24.1333 43.3741 24.6341 43.1667 25.1562 43.1667H29.0938C29.6159 43.1667 30.1167 43.3741 30.4859 43.7433C30.8551 44.1125 31.0625 44.6133 31.0625 45.1354C31.0625 45.6576 30.8551 46.1583 30.4859 46.5275C30.1167 46.8968 29.6159 47.1042 29.0938 47.1042H25.1562C24.6341 47.1042 24.1333 46.8968 23.7641 46.5275C23.3949 46.1583 23.1875 45.6576 23.1875 45.1354ZM35 45.1354C35 44.6133 35.2074 44.1125 35.5766 43.7433C35.9458 43.3741 36.4466 43.1667 36.9688 43.1667H40.9062C41.4284 43.1667 41.9292 43.3741 42.2984 43.7433C42.6676 44.1125 42.875 44.6133 42.875 45.1354C42.875 45.6576 42.6676 46.1583 42.2984 46.5275C41.9292 46.8968 41.4284 47.1042 40.9062 47.1042H36.9688C36.4466 47.1042 35.9458 46.8968 35.5766 46.5275C35.2074 46.1583 35 45.6576 35 45.1354ZM46.8125 45.1354C46.8125 44.6133 47.0199 44.1125 47.3891 43.7433C47.7583 43.3741 48.2591 43.1667 48.7812 43.1667H52.7188C53.2409 43.1667 53.7417 43.3741 54.1109 43.7433C54.4801 44.1125 54.6875 44.6133 54.6875 45.1354C54.6875 45.6576 54.4801 46.1583 54.1109 46.5275C53.7417 46.8968 53.2409 47.1042 52.7188 47.1042H48.7812C48.2591 47.1042 47.7583 46.8968 47.3891 46.5275C47.0199 46.1583 46.8125 45.6576 46.8125 45.1354Z" fill="#067655"/>
</svg>
