<svg width="24" height="24" viewBox="0 0 24 24" fill="none" xmlns="http://www.w3.org/2000/svg">
<path d="M14 19C17.771 19 19.657 19 20.828 17.828C22 16.657 22 14.771 22 11C22 7.229 22 5.343 20.828 4.172C19.657 3 17.771 3 14 3H10C6.229 3 4.343 3 3.172 4.172C2 5.343 2 7.229 2 11C2 14.771 2 16.657 3.172 17.828C3.825 18.482 4.7 18.771 6 18.898" stroke="white" stroke-opacity="0.87" stroke-width="2" stroke-linecap="round" stroke-linejoin="round"/>
<path d="M9.99926 8.484C10.4993 7.494 10.9993 7 11.9993 7C13.2453 7 13.9993 7.989 13.9993 8.978C13.9993 9.967 13.4993 10.011 11.9993 11V12M11.9993 14.5V15M13.9993 19C12.7633 19 11.4013 19.5 10.1583 20.145C8.16026 21.182 7.16126 21.701 6.66926 21.37C6.17726 21.04 6.27026 20.015 6.45726 17.966L6.49926 17.5" stroke="white" stroke-opacity="0.87" stroke-width="2" stroke-linecap="round"/>
</svg>
