<svg width="24" height="24" viewBox="0 0 24 24" fill="none" xmlns="http://www.w3.org/2000/svg">
<path d="M14 19C17.771 19 19.657 19 20.828 17.828C22 16.657 22 14.771 22 11C22 7.229 22 5.343 20.828 4.172C19.657 3 17.771 3 14 3H10C6.229 3 4.343 3 3.172 4.172C2 5.343 2 7.229 2 11C2 14.771 2 16.657 3.172 17.828C3.825 18.482 4.7 18.771 6 18.898" stroke="#262626" stroke-width="2" stroke-linecap="round" stroke-linejoin="round"/>
<path d="M10.0002 8.484C10.5002 7.494 11.0002 7 12.0002 7C13.2462 7 14.0002 7.989 14.0002 8.978C14.0002 9.967 13.5002 10.011 12.0002 11V12M12.0002 14.5V15M14.0002 19C12.7642 19 11.4022 19.5 10.1592 20.145C8.16124 21.182 7.16224 21.701 6.67024 21.37C6.17824 21.04 6.27124 20.015 6.45824 17.966L6.50024 17.5" stroke="#262626" stroke-width="2" stroke-linecap="round"/>
</svg>
