<svg width="48" height="48" viewBox="0 0 48 48" fill="none" xmlns="http://www.w3.org/2000/svg">
<circle cx="24" cy="24" r="24" fill="white"/>
<path d="M31.8729 25.875H15.5628C15.4596 25.875 15.3753 25.9594 15.3753 26.0625V27.4688C15.3753 27.5719 15.4596 27.6562 15.5628 27.6562H29.7471L26.3651 31.9453C26.269 32.0672 26.3557 32.25 26.5128 32.25H28.212C28.3268 32.25 28.4346 32.1984 28.5073 32.107L32.4635 27.0891C32.8503 26.5969 32.501 25.875 31.8729 25.875ZM32.4378 20.3438H18.2534L21.6354 16.0547C21.7315 15.9328 21.6448 15.75 21.4878 15.75H19.7885C19.6737 15.75 19.5659 15.8016 19.4932 15.893L15.537 20.9109C15.1503 21.4031 15.4995 22.125 16.1253 22.125H32.4378C32.5409 22.125 32.6253 22.0406 32.6253 21.9375V20.5312C32.6253 20.4281 32.5409 20.3438 32.4378 20.3438Z" fill="#067655"/>
</svg>
