<svg width="80" height="80" viewBox="0 0 80 80" fill="none" xmlns="http://www.w3.org/2000/svg">
<circle cx="40" cy="40" r="40" fill="#067655" fill-opacity="0.2"/>
<circle cx="40" cy="39.6364" r="30" fill="#067655"/>
<path d="M30.6665 33.3333H49.0532C49.4257 33.3334 49.7942 33.4114 50.1347 33.5626C50.4752 33.7137 50.7803 33.9345 51.0303 34.2107C51.2803 34.4869 51.4696 34.8125 51.5861 35.1664C51.7026 35.5203 51.7436 35.8946 51.7065 36.2653L50.9065 44.2653C50.8407 44.9234 50.5328 45.5334 50.0425 45.9772C49.5522 46.4209 48.9145 46.6667 48.2532 46.6667H35.5198C34.9031 46.6669 34.3054 46.4534 33.8284 46.0625C33.3515 45.6716 33.0247 45.1274 32.9038 44.5227L30.6665 33.3333Z" stroke="white" stroke-width="2" stroke-linejoin="round"/>
<path d="M30.6665 33.3333L29.5865 29.0093C29.5143 28.721 29.3478 28.4651 29.1134 28.2822C28.8791 28.0993 28.5904 28 28.2932 28H26.6665M34.6665 52H37.3332M45.3332 52H47.9998" stroke="white" stroke-width="2" stroke-linecap="round" stroke-linejoin="round"/>
</svg>
