<svg width="20" height="20" viewBox="0 0 20 20" fill="none" xmlns="http://www.w3.org/2000/svg">
<path fill-rule="evenodd" clip-rule="evenodd" d="M15.206 14.1642C15.1371 14.1658 15.0682 14.1666 14.9993 14.1667C9.93685 14.1667 5.83268 10.0625 5.83268 4.99999C5.83268 4.93082 5.83268 4.86166 5.83518 4.79332C5.10345 5.37918 4.50348 6.11277 4.07445 6.9462C3.64542 7.77963 3.39697 8.69417 3.34532 9.63012C3.29367 10.5661 3.43997 11.5024 3.77468 12.378C4.10939 13.2536 4.62499 14.0487 5.28781 14.7115C5.95064 15.3744 6.74579 15.8899 7.62137 16.2247C8.49695 16.5594 9.43327 16.7057 10.3692 16.654C11.3052 16.6024 12.2197 16.3539 13.0531 15.9249C13.8866 15.4959 14.6202 14.8959 15.206 14.1642ZM16.221 12.4008C14.8771 12.6231 13.498 12.4752 12.2318 11.973C10.9656 11.4707 9.86004 10.6331 9.03389 9.55004C8.20773 8.46698 7.69215 7.17937 7.54248 5.82543C7.39281 4.47149 7.6147 3.10235 8.18435 1.86499C6.33471 2.2776 4.68097 3.30838 3.49596 4.78729C2.31095 6.26621 1.66547 8.10489 1.66602 9.99999C1.66602 14.6025 5.39685 18.3333 9.99935 18.3333C11.8944 18.3337 13.733 17.6882 15.2119 16.5032C16.6908 15.3182 17.7216 13.6646 18.1343 11.815C17.5259 12.0956 16.8823 12.2927 16.221 12.4008Z" fill="#FAAD14"/>
</svg>
