<svg width="20" height="20" viewBox="0 0 20 20" fill="none" xmlns="http://www.w3.org/2000/svg">
<path fill-rule="evenodd" clip-rule="evenodd" d="M15.2065 14.1642C15.1376 14.1658 15.0687 14.1666 14.9998 14.1667C9.93734 14.1667 5.83317 10.0625 5.83317 4.99999C5.83317 4.93082 5.83317 4.86166 5.83567 4.79332C5.10393 5.37918 4.50397 6.11277 4.07494 6.9462C3.64591 7.77963 3.39746 8.69417 3.34581 9.63012C3.29416 10.5661 3.44046 11.5024 3.77517 12.378C4.10988 13.2536 4.62548 14.0487 5.2883 14.7115C5.95112 15.3744 6.74628 15.8899 7.62186 16.2247C8.49744 16.5594 9.43376 16.7057 10.3697 16.654C11.3057 16.6024 12.2202 16.3539 13.0536 15.9249C13.8871 15.4959 14.6206 14.8959 15.2065 14.1642V14.1642ZM16.2215 12.4008C14.8776 12.6231 13.4985 12.4752 12.2323 11.973C10.9661 11.4707 9.86053 10.6331 9.03437 9.55004C8.20822 8.46698 7.69264 7.17937 7.54297 5.82543C7.3933 4.47149 7.61519 3.10235 8.18484 1.86499C6.33519 2.2776 4.68145 3.30838 3.49645 4.78729C2.31144 6.26621 1.66596 8.10489 1.6665 9.99999C1.6665 14.6025 5.39734 18.3333 9.99984 18.3333C11.8949 18.3337 13.7335 17.6882 15.2124 16.5032C16.6913 15.3182 17.7221 13.6646 18.1348 11.815C17.5264 12.0956 16.8828 12.2927 16.2215 12.4008V12.4008Z" fill="#262626"/>
</svg>
