<svg width="20" height="20" viewBox="0 0 20 20" fill="none" xmlns="http://www.w3.org/2000/svg">
<path d="M15.8449 7.94532L10.3888 14.1953C10.2845 14.3108 10.1451 14.3754 10 14.3754C9.85493 14.3754 9.71554 14.3108 9.61125 14.1953L4.15511 7.94532C4.08109 7.85495 4.03092 7.74242 4.0104 7.62076C3.98988 7.49909 3.99985 7.37326 4.03916 7.25782C4.0809 7.14406 4.1511 7.04701 4.24092 6.97889C4.33073 6.91076 4.43614 6.87462 4.54386 6.875H15.4561C15.5639 6.87462 15.6693 6.91076 15.7591 6.97889C15.8489 7.04701 15.9191 7.14406 15.9608 7.25782C16.0001 7.37326 16.0101 7.49909 15.9896 7.62076C15.9691 7.74242 15.9189 7.85495 15.8449 7.94532Z" fill="black"/>
</svg>
