<svg width="20" height="20" viewBox="0 0 20 20" fill="none" xmlns="http://www.w3.org/2000/svg">
<path d="M19.3185 9.75C19.2951 9.6875 18.631 8.21875 17.1623 6.74219C15.2013 4.78906 12.7248 3.75 9.99821 3.75C7.27165 3.75 4.79509 4.78906 2.83415 6.74219C1.3654 8.21875 0.701337 9.6875 0.6779 9.75C0.643019 9.82873 0.625 9.91389 0.625 10C0.625 10.0861 0.643019 10.1713 0.6779 10.25C0.701337 10.3125 1.3654 11.7812 2.83415 13.2578C4.79509 15.2109 7.27165 16.25 9.99821 16.25C12.7248 16.25 15.2013 15.2109 17.1623 13.2578C18.631 11.7812 19.2951 10.3125 19.3185 10.25C19.3534 10.1713 19.3714 10.0861 19.3714 10C19.3714 9.91389 19.3534 9.82873 19.3185 9.75ZM9.99821 15C7.59196 15 5.4904 14.125 3.75602 12.3984C3.03925 11.6925 2.43108 10.8843 1.95134 10C2.43043 9.11298 3.03863 8.30205 3.75602 7.59375C5.4904 5.875 7.59196 5 9.99821 5C12.4045 5 14.506 5.875 16.2404 7.59375C16.9578 8.30205 17.566 9.11298 18.0451 10C17.4826 11.0547 15.0295 15 9.99821 15ZM9.99821 6.25C9.25653 6.25 8.53151 6.46993 7.91482 6.88199C7.29814 7.29404 6.81749 7.87971 6.53366 8.56494C6.24984 9.25016 6.17557 10.0042 6.32027 10.7316C6.46496 11.459 6.82212 12.1272 7.34656 12.6517C7.87101 13.1761 8.5392 13.5333 9.26662 13.6779C9.99405 13.8226 10.7481 13.7484 11.4333 13.4645C12.1185 13.1807 12.7042 12.7001 13.1162 12.0834C13.5283 11.4667 13.7482 10.7417 13.7482 10C13.7482 9.00544 13.3531 8.05161 12.6499 7.34835C11.9466 6.64509 10.9928 6.25 9.99821 6.25ZM9.99821 12.5C9.50376 12.5 9.02041 12.3534 8.60929 12.0787C8.19816 11.804 7.87773 11.4135 7.68851 10.9567C7.49929 10.4999 7.44979 9.99723 7.54625 9.51227C7.64271 9.02732 7.88081 8.58186 8.23045 8.23223C8.58008 7.8826 9.02553 7.6445 9.51049 7.54804C9.99544 7.45157 10.4981 7.50108 10.9549 7.6903C11.4117 7.87952 11.8022 8.19995 12.0769 8.61107C12.3516 9.0222 12.4982 9.50555 12.4982 10C12.4962 10.6624 12.2321 11.2971 11.7637 11.7655C11.2953 12.2339 10.6606 12.4979 9.99821 12.5Z" fill="#595959"/>
</svg>
