<svg width="20" height="20" viewBox="0 0 20 20" fill="none" xmlns="http://www.w3.org/2000/svg">
<path d="M18.0408 12.7188C18.1231 12.8619 18.1455 13.0317 18.1031 13.1913C18.0606 13.3508 17.9568 13.4871 17.8142 13.5703C17.72 13.6274 17.6118 13.6572 17.5017 13.6563C17.391 13.6573 17.2821 13.6289 17.186 13.5739C17.0899 13.519 17.0102 13.4396 16.9548 13.3438L15.5173 10.8594C14.6739 11.4268 13.7456 11.8566 12.7673 12.1328L13.2205 14.7031C13.2478 14.8666 13.21 15.0343 13.115 15.1702C13.0201 15.3061 12.8756 15.3992 12.7126 15.4297H12.6033C12.4562 15.4301 12.3136 15.3787 12.2007 15.2844C12.0878 15.19 12.0118 15.0589 11.9861 14.9141L11.5408 12.3828C11.0312 12.4588 10.5169 12.498 10.0017 12.5C9.48414 12.5003 8.96721 12.4637 8.45483 12.3906L8.00952 14.9219C7.98377 15.0667 7.90777 15.1978 7.79487 15.2922C7.68198 15.3865 7.53944 15.438 7.39233 15.4375H7.28295C7.12002 15.4071 6.97554 15.3139 6.88058 15.178C6.78562 15.0421 6.74776 14.8744 6.77514 14.711L7.23608 12.1328C6.25469 11.8584 5.32362 11.4285 4.47827 10.8594L3.03296 13.3594C2.97712 13.4531 2.89831 13.5309 2.80398 13.5856C2.70964 13.6403 2.60291 13.67 2.49389 13.6719C2.38437 13.6715 2.27687 13.6424 2.18216 13.5873C2.08746 13.5323 2.00887 13.4534 1.95428 13.3584C1.89968 13.2635 1.871 13.1559 1.87109 13.0463C1.87119 12.9368 1.90007 12.8292 1.95483 12.7344L3.47827 10.0938C2.94591 9.63721 2.45685 9.13247 2.01733 8.58596C1.96539 8.52263 1.92657 8.44959 1.90314 8.3711C1.87971 8.29262 1.87214 8.21026 1.88087 8.12881C1.88959 8.04737 1.91444 7.96848 1.95397 7.89674C1.99349 7.825 2.0469 7.76185 2.11108 7.71096C2.17392 7.65858 2.24656 7.61921 2.32475 7.59516C2.40295 7.5711 2.48514 7.56283 2.56656 7.57083C2.64798 7.57882 2.727 7.60293 2.79902 7.64174C2.87104 7.68055 2.93463 7.73329 2.98608 7.7969C3.47512 8.40659 4.03357 8.95718 4.65014 9.43752H4.65796C6.18354 10.6276 8.06693 11.2664 10.0017 11.25C12.2908 11.25 14.0486 10.4453 15.3376 9.44533H15.3533C15.9698 8.96499 16.5283 8.4144 17.0173 7.80471C17.0682 7.74053 17.1314 7.68712 17.2031 7.64759C17.2749 7.60807 17.3537 7.58322 17.4352 7.5745C17.5166 7.56577 17.599 7.57334 17.6775 7.59677C17.756 7.6202 17.829 7.65902 17.8923 7.71096C17.9565 7.76185 18.0099 7.825 18.0494 7.89674C18.089 7.96848 18.1138 8.04737 18.1225 8.12881C18.1313 8.21026 18.1237 8.29262 18.1003 8.3711C18.0768 8.44959 18.038 8.52263 17.9861 8.58596C17.5466 9.13247 17.0575 9.63721 16.5251 10.0938L18.0408 12.7188Z" fill="#595959"/>
</svg>
