<svg width="70" height="70" viewBox="0 0 70 70" fill="none" xmlns="http://www.w3.org/2000/svg">
<path d="M15.317 34.8208H14.1823L35.0145 55.6531L52.1226 38.545H57.3889L35.0145 60.9193L9.84707 35.781C9.16817 35.1021 8.56687 34.3747 8.04315 33.5988C7.51944 32.8229 7.06361 31.9889 6.67567 31.0966H13.7458L21.9798 22.8917L35.0145 35.8973L44.3251 26.6159L48.8348 31.0966H59.1637C59.7844 30.1074 60.2596 29.0599 60.5894 27.9543C60.9191 26.8487 61.084 25.714 61.084 24.5502C61.084 22.8626 60.7736 21.2915 60.1529 19.8367C59.5322 18.3819 58.6691 17.1211 57.5634 16.0543C56.4578 14.9875 55.1776 14.1437 53.7229 13.523C52.2681 12.9023 50.6872 12.592 48.9803 12.592C47.351 12.592 45.9059 12.8441 44.6451 13.3485C43.3843 13.8528 42.2205 14.5317 41.1537 15.3851C40.0868 16.2386 39.0685 17.1793 38.0987 18.2074C37.1288 19.2354 36.1008 20.3119 35.0145 21.437C33.9671 20.3895 32.9488 19.3324 31.9595 18.2656C30.9703 17.1987 29.9423 16.2386 28.8754 15.3851C27.8086 14.5317 26.6351 13.8334 25.3549 13.2903C24.0747 12.7471 22.6393 12.4756 21.0488 12.4756C19.3806 12.4756 17.8192 12.7859 16.3644 13.4066C14.9097 14.0273 13.6295 14.8905 12.5238 15.9961C11.4182 17.1018 10.5551 18.3819 9.93435 19.8367C9.31365 21.2915 8.9936 22.8626 8.97421 24.5502C8.97421 25.4618 9.08089 26.4026 9.29425 27.3724H5.48276C5.38578 26.9069 5.32759 26.4414 5.30819 25.9758C5.28879 25.5103 5.2694 25.0448 5.25 24.5793C5.25 22.3874 5.65733 20.3313 6.472 18.411C7.28667 16.4907 8.4117 14.8129 9.84707 13.3775C11.2824 11.9422 12.9603 10.8172 14.8806 10.0025C16.8009 9.18782 18.8569 8.77078 21.0488 8.75139C22.6587 8.75139 24.0941 8.93566 25.3549 9.3042C26.6157 9.67274 27.7795 10.1771 28.8463 10.8172C29.9132 11.4573 30.9412 12.2428 31.9304 13.1739C32.9197 14.1049 33.9477 15.1039 35.0145 16.1707C36.0814 15.0845 37.0997 14.0855 38.0696 13.1739C39.0394 12.2622 40.0674 11.4863 41.1537 10.8463C42.2399 10.2062 43.4134 9.69214 44.6742 9.3042C45.935 8.91626 47.3704 8.73199 48.9803 8.75139C51.1528 8.75139 53.1991 9.15872 55.1194 9.97339C57.0397 10.7881 58.7079 11.9131 60.1238 13.3485C61.5398 14.7838 62.6648 16.452 63.4989 18.3529C64.333 20.2537 64.75 22.3001 64.75 24.492C64.75 26.3735 64.4203 28.1968 63.7608 29.9619C63.1013 31.727 62.1605 33.3467 60.9385 34.8208H47.2637L44.3251 31.8531L35.0145 41.1927L21.9798 28.1289L15.317 34.8208Z" fill="#067655"/>
</svg>
