<svg width="70" height="70" viewBox="0 0 70 70" fill="none" xmlns="http://www.w3.org/2000/svg">
<path d="M15.75 20.125C15.75 18.0364 16.5797 16.0334 18.0565 14.5565C19.5334 13.0797 21.5364 12.25 23.625 12.25C25.7136 12.25 27.7166 13.0797 29.1935 14.5565C30.6703 16.0334 31.5 18.0364 31.5 20.125C31.5 22.2136 30.6703 24.2166 29.1935 25.6935C27.7166 27.1703 25.7136 28 23.625 28C21.5364 28 19.5334 27.1703 18.0565 25.6935C16.5797 24.2166 15.75 22.2136 15.75 20.125ZM23.625 8.75C20.6082 8.75 17.7149 9.94843 15.5817 12.0817C13.4484 14.2149 12.25 17.1082 12.25 20.125C12.25 23.1418 13.4484 26.0351 15.5817 28.1683C17.7149 30.3016 20.6082 31.5 23.625 31.5C26.6418 31.5 29.5351 30.3016 31.6683 28.1683C33.8016 26.0351 35 23.1418 35 20.125C35 17.1082 33.8016 14.2149 31.6683 12.0817C29.5351 9.94843 26.6418 8.75 23.625 8.75ZM35 35C35.8715 35 36.7045 35.1575 37.4745 35.4515C35.7735 36.0185 34.3035 37.0965 33.25 38.5H12.25C11.3217 38.5 10.4315 38.8688 9.77513 39.5251C9.11875 40.1815 8.75 41.0717 8.75 42V42.273L8.7745 42.5635C8.96415 44.2413 9.56265 45.8469 10.5175 47.2395C12.222 49.7035 15.7955 52.5 23.625 52.5C26.9605 52.5 29.526 51.9925 31.5 51.219V54.25C31.5 54.474 31.507 54.6945 31.5245 54.915C29.3475 55.594 26.74 56 23.625 56C14.8295 56 10.0905 52.78 7.637 49.231C6.34488 47.3489 5.53921 45.176 5.292 42.9065C5.27109 42.7029 5.25708 42.4986 5.25 42.294V42C5.25 40.1435 5.9875 38.363 7.30025 37.0503C8.61301 35.7375 10.3935 35 12.25 35H35ZM45.5 22.75C45.5 21.3576 46.0531 20.0223 47.0377 19.0377C48.0223 18.0531 49.3576 17.5 50.75 17.5C52.1424 17.5 53.4777 18.0531 54.4623 19.0377C55.4469 20.0223 56 21.3576 56 22.75C56 24.1424 55.4469 25.4777 54.4623 26.4623C53.4777 27.4469 52.1424 28 50.75 28C49.3576 28 48.0223 27.4469 47.0377 26.4623C46.0531 25.4777 45.5 24.1424 45.5 22.75ZM50.75 14C48.4294 14 46.2038 14.9219 44.5628 16.5628C42.9219 18.2038 42 20.4294 42 22.75C42 25.0706 42.9219 27.2962 44.5628 28.9372C46.2038 30.5781 48.4294 31.5 50.75 31.5C53.0706 31.5 55.2962 30.5781 56.9372 28.9372C58.5781 27.2962 59.5 25.0706 59.5 22.75C59.5 20.4294 58.5781 18.2038 56.9372 16.5628C55.2962 14.9219 53.0706 14 50.75 14ZM35 43.75C35 42.3576 35.5531 41.0223 36.5377 40.0377C37.5223 39.0531 38.8576 38.5 40.25 38.5H61.25C62.6424 38.5 63.9777 39.0531 64.9623 40.0377C65.9469 41.0223 66.5 42.3576 66.5 43.75V54.25C66.5 55.6424 65.9469 56.9777 64.9623 57.9623C63.9777 58.9469 62.6424 59.5 61.25 59.5H40.25C38.8576 59.5 37.5223 58.9469 36.5377 57.9623C35.5531 56.9777 35 55.6424 35 54.25V43.75ZM38.5 43.75V47.25C39.8924 47.25 41.2277 46.6969 42.2123 45.7123C43.1969 44.7277 43.75 43.3924 43.75 42H40.25C40.25 42.4641 40.0656 42.9093 39.7374 43.2374C39.4092 43.5656 38.9641 43.75 38.5 43.75ZM63 47.25V43.75C62.5359 43.75 62.0908 43.5656 61.7626 43.2374C61.4344 42.9093 61.25 42.4641 61.25 42H57.75C57.75 43.3924 58.3031 44.7277 59.2877 45.7123C60.2723 46.6969 61.6076 47.25 63 47.25ZM57.75 56H61.25C61.25 55.5359 61.4344 55.0908 61.7626 54.7626C62.0908 54.4344 62.5359 54.25 63 54.25V50.75C61.6076 50.75 60.2723 51.3031 59.2877 52.2877C58.3031 53.2723 57.75 54.6076 57.75 56ZM38.5 50.75V54.25C38.9641 54.25 39.4092 54.4344 39.7374 54.7626C40.0656 55.0908 40.25 55.5359 40.25 56H43.75C43.75 54.6076 43.1969 53.2723 42.2123 52.2877C41.2277 51.3031 39.8924 50.75 38.5 50.75ZM50.75 54.25C52.1424 54.25 53.4777 53.6969 54.4623 52.7123C55.4469 51.7277 56 50.3924 56 49C56 47.6076 55.4469 46.2723 54.4623 45.2877C53.4777 44.3031 52.1424 43.75 50.75 43.75C49.3576 43.75 48.0223 44.3031 47.0377 45.2877C46.0531 46.2723 45.5 47.6076 45.5 49C45.5 50.3924 46.0531 51.7277 47.0377 52.7123C48.0223 53.6969 49.3576 54.25 50.75 54.25Z" fill="#067655"/>
</svg>
