<svg width="70" height="70" viewBox="0 0 70 70" fill="none" xmlns="http://www.w3.org/2000/svg">
<path d="M27.8891 8.75C24.2094 8.74889 20.589 9.676 17.3628 11.4455C14.1366 13.215 11.4089 15.7698 9.43213 18.8734C7.45538 21.9769 6.29344 25.529 6.05387 29.2008C5.8143 32.8726 6.50483 36.5455 8.06155 39.8796L5.94989 48.1687C5.79468 48.7776 5.79947 49.4163 5.9638 50.0228C6.12813 50.6293 6.44642 51.183 6.88778 51.6302C7.32915 52.0774 7.87862 52.403 8.48287 52.5753C9.08713 52.7477 9.72567 52.7609 10.3366 52.6137C12.5241 52.0887 15.887 51.2808 18.8824 50.5662C21.8566 51.9074 25.0931 52.5663 28.3549 52.4947C31.6167 52.4231 34.8212 51.6228 37.7336 50.1524C40.6461 48.6819 43.1927 46.5787 45.187 43.9966C47.1814 41.4145 48.5729 38.419 49.2596 35.2295C49.9464 32.04 49.911 28.7373 49.156 25.5633C48.4011 22.3892 46.9457 19.4243 44.8965 16.8855C42.8473 14.3468 40.2562 12.2985 37.3129 10.8909C34.3696 9.48318 31.1487 8.7517 27.8861 8.75H27.8891ZM10.3891 30.625C10.3902 26.8196 11.6317 23.1183 13.9255 20.0819C16.2192 17.0455 19.4402 14.8396 23.1003 13.7982C26.7604 12.7569 30.6602 12.937 34.2088 14.3113C37.7574 15.6855 40.7613 18.179 42.7654 21.4139C44.7696 24.6487 45.6646 28.4487 45.315 32.238C44.9655 36.0273 43.3902 39.5993 40.8281 42.4129C38.266 45.2265 34.8565 47.1283 31.1164 47.8301C27.3763 48.5319 23.5094 47.9955 20.1016 46.3021L19.3899 45.9492L18.6199 46.1329C15.9278 46.7746 12.8157 47.5183 10.4882 48.0783L12.5007 40.18L12.7049 39.375L12.3257 38.6371C11.0483 36.1598 10.3842 33.4122 10.3891 30.625ZM42.4724 61.25C36.9545 61.258 31.6389 59.1734 27.5974 55.4167H27.8891C29.9832 55.4167 32.0161 55.1571 33.9557 54.6671C36.4786 56.0729 39.3807 56.875 42.4724 56.875C45.2724 56.875 47.9149 56.2187 50.2599 55.0521L50.9686 54.6992L51.7386 54.8829C54.4278 55.5246 57.4728 56.1808 59.7303 56.6621C59.2199 54.4717 58.5228 51.5404 57.8578 48.93L57.6536 48.125L58.0328 47.3871C59.3112 44.9101 59.9764 42.1624 59.9724 39.375C59.9739 36.4492 59.2412 33.5697 57.8414 31.0005C56.4416 28.4313 54.4195 26.2543 51.9603 24.6692C51.4461 22.5858 50.6616 20.5787 49.627 18.6987C52.5224 19.7014 55.1751 21.3009 57.4132 23.3937C59.6513 25.4865 61.4249 28.026 62.6193 30.8478C63.8136 33.6696 64.4021 36.7107 64.3466 39.7744C64.2911 42.838 63.5928 45.8558 62.297 48.6325C63.0349 51.5725 63.7816 54.7575 64.2541 56.8079C64.3926 57.4019 64.3791 58.0213 64.2149 58.6088C64.0507 59.1962 63.741 59.7328 63.3145 60.1689C62.888 60.6049 62.3585 60.9265 61.7748 61.1037C61.1912 61.281 60.5723 61.3082 59.9753 61.1829C57.1363 60.5926 54.304 59.9703 51.479 59.3162C48.6488 60.5949 45.5781 61.2542 42.4724 61.25Z" fill="#067655"/>
</svg>
