<svg width="70" height="70" viewBox="0 0 70 70" fill="none" xmlns="http://www.w3.org/2000/svg">
<path d="M21 7C19.1435 7 17.363 7.7375 16.0503 9.05025C14.7375 10.363 14 12.1435 14 14V38.5H17.5V14C17.5 13.0717 17.8688 12.1815 18.5251 11.5251C19.1815 10.8687 20.0717 10.5 21 10.5H45.5C46.4283 10.5 47.3185 10.8687 47.9749 11.5251C48.6313 12.1815 49 13.0717 49 14V52.5H38.5V56H52.5C55.2848 56 57.9555 54.8938 59.9246 52.9246C61.8938 50.9555 63 48.2848 63 45.5V38.5H52.5V14C52.5 12.1435 51.7625 10.363 50.4497 9.05025C49.137 7.7375 47.3565 7 45.5 7H21ZM59.5 45.5C59.5 47.3565 58.7625 49.137 57.4497 50.4497C56.137 51.7625 54.3565 52.5 52.5 52.5V42H59.5V45.5ZM26.25 17.5C25.7859 17.5 25.3408 17.6844 25.0126 18.0126C24.6844 18.3408 24.5 18.7859 24.5 19.25C24.5 19.7141 24.6844 20.1592 25.0126 20.4874C25.3408 20.8156 25.7859 21 26.25 21H40.25C40.7141 21 41.1593 20.8156 41.4874 20.4874C41.8156 20.1592 42 19.7141 42 19.25C42 18.7859 41.8156 18.3408 41.4874 18.0126C41.1593 17.6844 40.7141 17.5 40.25 17.5H26.25ZM24.5 26.25C24.5 25.7859 24.6844 25.3408 25.0126 25.0126C25.3408 24.6844 25.7859 24.5 26.25 24.5H40.25C40.7141 24.5 41.1593 24.6844 41.4874 25.0126C41.8156 25.3408 42 25.7859 42 26.25C42 26.7141 41.8156 27.1592 41.4874 27.4874C41.1593 27.8156 40.7141 28 40.25 28H26.25C25.7859 28 25.3408 27.8156 25.0126 27.4874C24.6844 27.1592 24.5 26.7141 24.5 26.25ZM29.75 42C31.1424 42 32.4777 42.5531 33.4623 43.5377C34.4469 44.5223 35 45.8576 35 47.25V57.75C35 59.1424 34.4469 60.4777 33.4623 61.4623C32.4777 62.4469 31.1424 63 29.75 63H8.75C7.35761 63 6.02226 62.4469 5.03769 61.4623C4.05312 60.4777 3.5 59.1424 3.5 57.75V47.25C3.5 45.8576 4.05312 44.5223 5.03769 43.5377C6.02226 42.5531 7.35761 42 8.75 42H29.75ZM31.5 57.75V54.25C30.1076 54.25 28.7723 54.8031 27.7877 55.7877C26.8031 56.7723 26.25 58.1076 26.25 59.5H29.75C29.75 59.0359 29.9344 58.5908 30.2626 58.2626C30.5908 57.9344 31.0359 57.75 31.5 57.75ZM31.5 47.25C31.0359 47.25 30.5908 47.0656 30.2626 46.7374C29.9344 46.4092 29.75 45.9641 29.75 45.5H26.25C26.25 46.8924 26.8031 48.2277 27.7877 49.2123C28.7723 50.1969 30.1076 50.75 31.5 50.75V47.25ZM8.75 45.5C8.75 45.9641 8.56563 46.4092 8.23744 46.7374C7.90925 47.0656 7.46413 47.25 7 47.25V50.75C8.39239 50.75 9.72775 50.1969 10.7123 49.2123C11.6969 48.2277 12.25 46.8924 12.25 45.5H8.75ZM7 57.75C7.46413 57.75 7.90925 57.9344 8.23744 58.2626C8.56563 58.5908 8.75 59.0359 8.75 59.5H12.25C12.25 58.1076 11.6969 56.7723 10.7123 55.7877C9.72775 54.8031 8.39239 54.25 7 54.25V57.75ZM19.25 47.25C17.8576 47.25 16.5223 47.8031 15.5377 48.7877C14.5531 49.7723 14 51.1076 14 52.5C14 53.8924 14.5531 55.2277 15.5377 56.2123C16.5223 57.1969 17.8576 57.75 19.25 57.75C20.6424 57.75 21.9777 57.1969 22.9623 56.2123C23.9469 55.2277 24.5 53.8924 24.5 52.5C24.5 51.1076 23.9469 49.7723 22.9623 48.7877C21.9777 47.8031 20.6424 47.25 19.25 47.25Z" fill="#067655"/>
</svg>
