<svg width="20" height="20" viewBox="0 0 20 20" fill="none" xmlns="http://www.w3.org/2000/svg">
<g clip-path="url(#clip0_2881_17383)">
<path d="M19.5358 10.1871C19.5358 9.36771 19.4693 8.76977 19.3254 8.1497H9.96875V11.848H15.4609C15.3502 12.7671 14.7523 14.1512 13.4235 15.0813L13.4049 15.2051L16.3633 17.4969L16.5682 17.5174C18.4506 15.7789 19.5358 13.2211 19.5358 10.1871Z" fill="#4285F4"/>
<path d="M9.96908 19.9313C12.6598 19.9313 14.9186 19.0454 16.5685 17.5174L13.4238 15.0813C12.5823 15.6682 11.4528 16.0779 9.96908 16.0779C7.33373 16.0779 5.09702 14.3395 4.29969 11.9366L4.18282 11.9466L1.10664 14.3272L1.06641 14.4391C2.70518 17.6945 6.07137 19.9313 9.96908 19.9313Z" fill="#34A853"/>
<path d="M4.30017 11.9366C4.08978 11.3166 3.96803 10.6521 3.96803 9.96565C3.96803 9.27908 4.08978 8.61473 4.2891 7.99466L4.28352 7.8626L1.16879 5.44366L1.06688 5.49214C0.391464 6.84305 0.00390625 8.36008 0.00390625 9.96565C0.00390625 11.5712 0.391464 13.0882 1.06688 14.4391L4.30017 11.9366Z" fill="#FBBC05"/>
<path d="M9.96908 3.85336C11.8404 3.85336 13.1027 4.66168 13.8224 5.33718L16.635 2.59107C14.9076 0.985496 12.6598 0 9.96908 0C6.07137 0 2.70518 2.23672 1.06641 5.49214L4.28862 7.99466C5.09702 5.59183 7.33373 3.85336 9.96908 3.85336Z" fill="#EB4335"/>
</g>
<defs>
<clipPath id="clip0_2881_17383">
<rect width="19.55" height="20" fill="white"/>
</clipPath>
</defs>
</svg>
