<svg width="24" height="24" viewBox="0 0 24 24" fill="none" xmlns="http://www.w3.org/2000/svg">
<g clip-path="url(#clip0_147_361)">
<path d="M23.5023 12.1516L13.2734 1.92792L12.5877 1.24229C12.4315 1.0871 12.2203 1 12 1C11.7798 1 11.5686 1.0871 11.4124 1.24229L0.497791 12.1516C0.337715 12.311 0.211205 12.5009 0.125727 12.7101C0.0402491 12.9192 -0.0024636 13.1434 0.000109727 13.3693C0.0106987 14.3011 0.78634 15.045 1.71817 15.045H2.84325V23.6671H21.1569V15.045H22.3058C22.7584 15.045 23.1846 14.8676 23.505 14.5473C23.6627 14.3901 23.7876 14.2032 23.8726 13.9973C23.9576 13.7915 24.0009 13.5708 24 13.3481C24 12.8981 23.8226 12.4719 23.5023 12.1516ZM13.4825 21.761H10.5176V16.3607H13.4825V21.761ZM19.2508 13.139V21.761H15.1767V15.7253C15.1767 15.1403 14.7029 14.6664 14.1178 14.6664H9.88226C9.29722 14.6664 8.82336 15.1403 8.82336 15.7253V21.761H4.74926V13.139H2.20791L12.0027 3.35214L12.6142 3.96365L21.7948 13.139H19.2508Z" fill="#595959"/>
</g>
<defs>
<clipPath id="clip0_147_361">
<rect width="24" height="24" fill="white"/>
</clipPath>
</defs>
</svg>
