<svg width="24" height="24" viewBox="0 0 24 24" fill="none" xmlns="http://www.w3.org/2000/svg">
<g clip-path="url(#clip0_3_9)">
<path d="M23.5023 12.1516L13.2734 1.92791L12.5878 1.24228C12.4315 1.08709 12.2203 0.999989 12.0001 0.999989C11.7799 0.999989 11.5686 1.08709 11.4124 1.24228L0.497806 12.1516C0.33773 12.311 0.21122 12.5009 0.125742 12.7101C0.0402644 12.9192 -0.00244834 13.1434 0.000124986 13.3693C0.0107139 14.3011 0.786355 15.045 1.71818 15.045H2.84326V23.667H21.1569V15.045H22.3058C22.7584 15.045 23.1847 14.8676 23.505 14.5473C23.6627 14.3901 23.7877 14.2031 23.8726 13.9973C23.9576 13.7915 24.0009 13.5708 24 13.3481C24 12.8981 23.8226 12.4719 23.5023 12.1516V12.1516ZM13.4825 21.761H10.5176V16.3607H13.4825V21.761ZM19.2509 13.139V21.761H15.1768V15.7253C15.1768 15.1403 14.7029 14.6664 14.1179 14.6664H9.88227C9.29723 14.6664 8.82338 15.1403 8.82338 15.7253V21.761H4.74927V13.139H2.20792L12.0027 3.35213L12.6142 3.96364L21.7949 13.139H19.2509Z" fill="white"/>
</g>
<defs>
<clipPath id="clip0_3_9">
<rect width="24" height="24" fill="white"/>
</clipPath>
</defs>
</svg>
