<svg width="24" height="24" viewBox="0 0 24 24" fill="none" xmlns="http://www.w3.org/2000/svg">
<g clip-path="url(#clip0_3_11)">
<path d="M23.5034 12.1447L12.5989 1.24816C12.5204 1.1695 12.4272 1.10708 12.3245 1.0645C12.2218 1.02192 12.1118 0.999996 12.0006 0.999996C11.8895 0.999996 11.7794 1.02192 11.6768 1.0645C11.5741 1.10708 11.4808 1.1695 11.4023 1.24816L0.497829 12.1447C0.180146 12.4624 0.000125051 12.8939 0.000125051 13.344C0.000125051 14.2785 0.759918 15.0383 1.69444 15.0383H2.84339V22.8136C2.84339 23.2822 3.22197 23.6607 3.69055 23.6607H10.3063V17.7306H13.2714V23.6607H20.3107C20.7793 23.6607 21.1579 23.2822 21.1579 22.8136V15.0383H22.3068C22.7569 15.0383 23.1884 14.8609 23.5061 14.5406C24.1653 13.8787 24.1653 12.8065 23.5034 12.1447V12.1447Z" fill="white"/>
</g>
<defs>
<clipPath id="clip0_3_11">
<rect width="24" height="24" fill="white"/>
</clipPath>
</defs>
</svg>
