<svg width="24" height="24" viewBox="0 0 24 24" fill="none" xmlns="http://www.w3.org/2000/svg">
<g clip-path="url(#clip0_291_129)">
<path d="M23.5033 12.1447L12.5988 1.24817C12.5203 1.1695 12.427 1.10709 12.3244 1.0645C12.2217 1.02192 12.1116 1 12.0005 1C11.8893 1 11.7793 1.02192 11.6766 1.0645C11.574 1.10709 11.4807 1.1695 11.4022 1.24817L0.497704 12.1447C0.180021 12.4624 0 12.8939 0 13.344C0 14.2785 0.759793 15.0383 1.69431 15.0383H2.84327V22.8136C2.84327 23.2822 3.22184 23.6607 3.69042 23.6607H10.3062V17.7306H13.2712V23.6607H20.3106C20.7792 23.6607 21.1577 23.2822 21.1577 22.8136V15.0383H22.3067C22.7567 15.0383 23.1883 14.8609 23.5059 14.5406C24.1651 13.8787 24.1651 12.8066 23.5033 12.1447Z" fill="#595959"/>
</g>
<defs>
<clipPath id="clip0_291_129">
<rect width="24" height="24" fill="white"/>
</clipPath>
</defs>
</svg>
