<svg width="70" height="70" viewBox="0 0 70 70" fill="none" xmlns="http://www.w3.org/2000/svg">
<path fill-rule="evenodd" clip-rule="evenodd" d="M46.6665 43.8288C46.6665 42.6684 47.1274 41.5556 47.9479 40.7352C48.7684 39.9147 49.8812 39.4538 51.0415 39.4538C52.2018 39.4538 53.3146 39.9147 54.1351 40.7352C54.9556 41.5556 55.4165 42.6684 55.4165 43.8288V62.7083C55.4165 63.0951 55.2629 63.466 54.9894 63.7395C54.7159 64.013 54.3449 64.1667 53.9582 64.1667C53.5714 64.1667 53.2005 64.013 52.927 63.7395C52.6535 63.466 52.4998 63.0951 52.4998 62.7083V43.8288C52.4998 43.442 52.3462 43.071 52.0727 42.7976C51.7992 42.5241 51.4283 42.3704 51.0415 42.3704C50.6547 42.3704 50.2838 42.5241 50.0103 42.7976C49.7368 43.071 49.5832 43.442 49.5832 43.8288V44.329C49.5832 44.7157 49.4295 45.0867 49.156 45.3602C48.8825 45.6336 48.5116 45.7873 48.1248 45.7873C47.7381 45.7873 47.3671 45.6336 47.0936 45.3602C46.8201 45.0867 46.6665 44.7157 46.6665 44.329V43.8288Z" fill="#067655"/>
<path fill-rule="evenodd" clip-rule="evenodd" d="M26.6218 24.7917C23.7401 24.7917 21.4389 25.7542 19.858 27.2956C19.121 28.0118 18.5332 28.867 18.1284 29.8116C17.7237 30.7563 17.5101 31.7717 17.4999 32.7994C17.4868 33.827 17.6821 34.8466 18.0741 35.7966C18.4661 36.7465 19.0467 37.6072 19.7807 38.3265C21.3018 39.8183 23.5097 40.759 26.2864 40.829L27.7082 40.8654V60.181C27.7082 60.5704 28.1253 61.2106 29.0922 61.2485C30.0634 61.2865 30.5768 60.6696 30.6205 60.2569L32.0468 46.6667H37.953L39.3793 60.2583C39.423 60.6696 39.9364 61.2865 40.9076 61.2485C41.8745 61.2106 42.2916 60.5704 42.2916 60.181V28.07L44.3536 29.0077C45.9622 29.7383 47.0078 30.6702 47.6991 31.5087C48.4574 32.4319 49.1778 33.6948 49.3659 35.0831L49.3689 35.1123L49.3718 35.1356C49.4476 35.8823 50.1593 36.5269 51.0722 36.4525C51.9472 36.3825 52.5699 35.6271 52.5057 34.879C52.4414 34.3081 52.3122 33.7464 52.1207 33.2048C51.698 31.9421 51.0464 30.768 50.1987 29.7412C48.0724 27.1571 44.1801 24.7917 37.2982 24.7917H26.6218ZM17.8222 25.2073C20.0097 23.0752 23.0722 21.875 26.6218 21.875H37.2968C44.9166 21.875 49.6897 24.5321 52.4518 27.8877C53.5277 29.1917 54.3542 30.6827 54.8901 32.286C55.1234 32.9919 55.3334 33.7794 55.4093 34.6165V34.6223C55.6324 37.1408 53.6345 39.1723 51.3055 39.3604C48.9197 39.5515 46.7322 37.8656 46.4726 35.4579C46.3764 34.7812 45.9855 34.0185 45.4459 33.3623C45.3697 33.2697 45.2905 33.1797 45.2082 33.0925V60.181C45.2082 62.4925 43.1724 64.0777 41.0228 64.1623C38.8791 64.2469 36.7178 62.841 36.4786 60.5602L35.3266 49.5833H34.6732L33.5211 60.5617C33.282 62.841 31.1207 64.2469 28.977 64.1637C26.8274 64.0792 24.7916 62.4925 24.7916 60.181V43.6435C21.9843 43.3081 19.5561 42.1925 17.7376 40.406C16.7239 39.4122 15.9219 38.2234 15.3798 36.9114C14.8377 35.5994 14.5667 34.1912 14.5832 32.7717C14.5971 31.3598 14.8903 29.9646 15.446 28.6666C16.0016 27.3685 16.8087 26.1933 17.8207 25.2087L17.8222 25.2073ZM27.7082 27.6456V37.975L26.1857 37.9079C24.252 37.8204 22.9234 37.1642 22.0659 36.3227C21.6053 35.8659 21.242 35.3206 20.9979 34.7195C20.7537 34.1185 20.6339 33.4742 20.6455 32.8256C20.6497 32.1696 20.7835 31.5208 21.0393 30.9166C21.295 30.3124 21.6677 29.7648 22.1359 29.3052C23.0066 28.4579 24.322 27.8075 26.1799 27.7185L27.7082 27.6456ZM24.7916 30.9721C24.4263 31.1331 24.1157 31.3967 23.8974 31.731C23.6792 32.0652 23.5627 32.4556 23.5622 32.8548C23.5564 33.4148 23.762 33.9019 24.1091 34.2402C24.2461 34.3758 24.462 34.5421 24.7916 34.6835V30.9721ZM34.9999 8.74999C33.8396 8.74999 32.7268 9.21093 31.9063 10.0314C31.0858 10.8519 30.6249 11.9647 30.6249 13.125C30.6249 14.2853 31.0858 15.3981 31.9063 16.2186C32.7268 17.0391 33.8396 17.5 34.9999 17.5C36.1602 17.5 37.273 17.0391 38.0935 16.2186C38.914 15.3981 39.3749 14.2853 39.3749 13.125C39.3749 11.9647 38.914 10.8519 38.0935 10.0314C37.273 9.21093 36.1602 8.74999 34.9999 8.74999ZM27.7082 13.125C27.7082 11.1911 28.4765 9.33646 29.8439 7.96901C31.2114 6.60156 33.066 5.83333 34.9999 5.83333C36.9338 5.83333 38.7884 6.60156 40.1559 7.96901C41.5233 9.33646 42.2916 11.1911 42.2916 13.125C42.2916 15.0589 41.5233 16.9135 40.1559 18.281C38.7884 19.6484 36.9338 20.4167 34.9999 20.4167C33.066 20.4167 31.2114 19.6484 29.8439 18.281C28.4765 16.9135 27.7082 15.0589 27.7082 13.125Z" fill="#067655"/>
</svg>
