<svg width="70" height="70" viewBox="0 0 70 70" fill="none" xmlns="http://www.w3.org/2000/svg">
<path fill-rule="evenodd" clip-rule="evenodd" d="M51.7708 14.5833C51.7708 16.1304 51.1562 17.6142 50.0623 18.7081C48.9683 19.8021 47.4846 20.4167 45.9375 20.4167C44.3904 20.4167 42.9067 19.8021 41.8127 18.7081C40.7188 17.6142 40.1042 16.1304 40.1042 14.5833C40.1042 13.0362 40.7188 11.5525 41.8127 10.4585C42.9067 9.36458 44.3904 8.75 45.9375 8.75C47.4846 8.75 48.9683 9.36458 50.0623 10.4585C51.1562 11.5525 51.7708 13.0362 51.7708 14.5833ZM48.8542 14.5833C48.8542 15.3569 48.5469 16.0987 47.9999 16.6457C47.4529 17.1927 46.711 17.5 45.9375 17.5C45.164 17.5 44.4221 17.1927 43.8751 16.6457C43.3281 16.0987 43.0208 15.3569 43.0208 14.5833C43.0208 13.8098 43.3281 13.0679 43.8751 12.5209C44.4221 11.974 45.164 11.6667 45.9375 11.6667C46.711 11.6667 47.4529 11.974 47.9999 12.5209C48.5469 13.0679 48.8542 13.8098 48.8542 14.5833ZM16.0417 40.8333C16.0417 40.0598 16.349 39.3179 16.8959 38.7709C17.4429 38.224 18.1848 37.9167 18.9583 37.9167H23.3333C24.1069 37.9167 24.8487 38.224 25.3957 38.7709C25.9427 39.3179 26.25 40.0598 26.25 40.8333V43.75H30.625C31.3985 43.75 32.1404 44.0573 32.6874 44.6043C33.2344 45.1513 33.5417 45.8931 33.5417 46.6667V58.3333C33.5417 59.1069 33.2344 59.8488 32.6874 60.3957C32.1404 60.9427 31.3985 61.25 30.625 61.25H11.6667C10.8931 61.25 10.1513 60.9427 9.60427 60.3957C9.05729 59.8488 8.75 59.1069 8.75 58.3333V46.6667C8.75 45.8931 9.05729 45.1513 9.60427 44.6043C10.1513 44.0573 10.8931 43.75 11.6667 43.75H16.0417V40.8333ZM11.6667 58.3333V46.6667H14.5833V58.3333H11.6667ZM23.3333 40.8333V43.75H18.9583V40.8333H23.3333ZM24.7917 46.6667H17.5V58.3333H24.7917V46.6667ZM27.7083 46.6667V58.3333H30.625V46.6667H27.7083Z" fill="#067655"/>
<path d="M55.4167 32.0833C55.4167 31.3098 55.1094 30.5679 54.5624 30.0209C54.0154 29.4739 53.2735 29.1667 52.5 29.1667V35C53.2735 35 54.0154 34.6927 54.5624 34.1457C55.1094 33.5987 55.4167 32.8569 55.4167 32.0833Z" fill="#067655"/>
<path fill-rule="evenodd" clip-rule="evenodd" d="M40.8332 61.25C39.6728 61.25 38.5601 60.7891 37.7396 59.9686C36.9191 59.1481 36.4582 58.0353 36.4582 56.875V32.0833H29.1665C28.0062 32.0833 26.8934 31.6224 26.0729 30.8019C25.2524 29.9815 24.7915 28.8687 24.7915 27.7083C24.7915 26.548 25.2524 25.4352 26.0729 24.6148C26.8934 23.7943 28.0062 23.3333 29.1665 23.3333H53.9815C55.6046 23.3333 61.2498 25.3225 61.2498 31.4577C61.2498 36.3271 57.6959 39.3721 55.4165 40.4221V56.875C55.4165 58.0353 54.9556 59.1481 54.1351 59.9686C53.3146 60.7891 52.2018 61.25 51.0415 61.25C49.8812 61.25 48.7684 60.7891 47.9479 59.9686C47.1274 59.1481 46.6665 58.0353 46.6665 56.875V45.2083H45.2082V56.875C45.2082 57.8973 44.8582 58.8379 44.269 59.5831C43.86 60.1031 43.3382 60.5233 42.743 60.8121C42.1478 61.1009 41.4947 61.2506 40.8332 61.25ZM52.4998 38.554L54.1959 37.7723C55.8642 37.0038 58.3332 34.7871 58.3332 31.4577C58.3332 29.4248 57.4509 28.194 56.4257 27.3904C55.9279 27.003 55.3742 26.6932 54.7836 26.4717C54.5278 26.3718 54.2625 26.2985 53.9917 26.2529C53.9713 26.25 53.9684 26.25 53.98 26.25H29.1665C28.7797 26.25 28.4088 26.4037 28.1353 26.6771C27.8618 26.9506 27.7082 27.3216 27.7082 27.7083C27.7082 28.0951 27.8618 28.4661 28.1353 28.7395C28.4088 29.013 28.7797 29.1667 29.1665 29.1667H39.3748V56.875C39.3748 57.2618 39.5285 57.6327 39.802 57.9062C40.0755 58.1797 40.4464 58.3333 40.8332 58.3333C41.2199 58.3333 41.5909 58.1797 41.8644 57.9062C42.1379 57.6327 42.2915 57.2618 42.2915 56.875V42.2917H49.5832V56.875C49.5832 57.2618 49.7368 57.6327 50.0103 57.9062C50.2838 58.1797 50.6547 58.3333 51.0415 58.3333C51.4283 58.3333 51.7992 58.1797 52.0727 57.9062C52.3462 57.6327 52.4998 57.2618 52.4998 56.875V38.554Z" fill="#067655"/>
</svg>
