<svg width="70" height="70" viewBox="0 0 70 70" fill="none" xmlns="http://www.w3.org/2000/svg">
<path fill-rule="evenodd" clip-rule="evenodd" d="M11.6665 62.7083C11.6665 62.3216 11.8201 61.9506 12.0936 61.6771C12.3671 61.4036 12.7381 61.25 13.1248 61.25H56.8748C57.2616 61.25 57.6325 61.4036 57.906 61.6771C58.1795 61.9506 58.3332 62.3216 58.3332 62.7083C58.3332 63.0951 58.1795 63.466 57.906 63.7395C57.6325 64.013 57.2616 64.1667 56.8748 64.1667H13.1248C12.7381 64.1667 12.3671 64.013 12.0936 63.7395C11.8201 63.466 11.6665 63.0951 11.6665 62.7083ZM27.7082 11.6667H14.5832V8.75H27.7082V11.6667ZM56.8748 11.6667H43.7498V8.75H56.8748V11.6667ZM24.7915 16.0417H16.0415V13.125H24.7915V16.0417ZM53.9582 16.0417H45.2082V13.125H53.9582V16.0417ZM46.6665 55.4167H23.3332V52.5H46.6665V55.4167ZM36.4582 10.2083V21.875H33.5415V10.2083H36.4582Z" fill="#067655"/>
<path fill-rule="evenodd" clip-rule="evenodd" d="M29.1665 14.5833H40.8332V17.5H29.1665V14.5833Z" fill="#067655"/>
<path fill-rule="evenodd" clip-rule="evenodd" d="M42.2915 8.75H27.7082V23.3333H42.2915V8.75ZM27.7082 5.83333H42.2915C43.0651 5.83333 43.8069 6.14062 44.3539 6.6876C44.9009 7.23458 45.2082 7.97645 45.2082 8.75V23.3333C45.2082 24.1069 44.9009 24.8487 44.3539 25.3957C43.8069 25.9427 43.0651 26.25 42.2915 26.25H27.7082C26.9346 26.25 26.1928 25.9427 25.6458 25.3957C25.0988 24.8487 24.7915 24.1069 24.7915 23.3333V8.75C24.7915 7.97645 25.0988 7.23458 25.6458 6.6876C26.1928 6.14062 26.9346 5.83333 27.7082 5.83333ZM16.0415 61.25V10.2083H18.9582V61.25H16.0415ZM51.0415 61.25V10.2083H53.9582V61.25H51.0415ZM33.5415 61.25V55.4167H36.4582V61.25H33.5415ZM42.2915 61.25V55.4167H45.2082V61.25H42.2915ZM24.7915 61.25V55.4167H27.7082V61.25H24.7915Z" fill="#067655"/>
<path d="M23.333 29.1667H29.1663V33.5417H23.333V29.1667ZM23.333 36.4583H29.1663V40.8333H23.333V36.4583ZM23.333 43.75H29.1663V48.125H23.333V43.75ZM32.083 29.1667H37.9163V33.5417H32.083V29.1667ZM32.083 36.4583H37.9163V40.8333H32.083V36.4583ZM32.083 43.75H37.9163V48.125H32.083V43.75ZM40.833 29.1667H46.6663V33.5417H40.833V29.1667ZM40.833 36.4583H46.6663V40.8333H40.833V36.4583ZM40.833 43.75H46.6663V48.125H40.833V43.75Z" fill="#067655"/>
</svg>
