<svg width="40" height="40" viewBox="0 0 40 40" fill="none" xmlns="http://www.w3.org/2000/svg">
<circle cx="20" cy="20" r="19.5" fill="white" stroke="#067655"/>
<path d="M12.9829 15.197C14.1913 15.197 15.1709 14.2174 15.1709 13.009C15.1709 11.8006 14.1913 10.821 12.9829 10.821C11.7745 10.821 10.7949 11.8006 10.7949 13.009C10.7949 14.2174 11.7745 15.197 12.9829 15.197Z" fill="#067655"/>
<path d="M17.2367 16.855V28.994H21.0057V22.991C21.0057 21.407 21.3037 19.873 23.2677 19.873C25.2047 19.873 25.2287 21.684 25.2287 23.091V28.995H28.9997V22.338C28.9997 19.068 28.2957 16.555 24.4737 16.555C22.6387 16.555 21.4087 17.562 20.9057 18.515H20.8547V16.855H17.2367V16.855ZM11.0947 16.855H14.8697V28.994H11.0947V16.855Z" fill="#067655"/>
</svg>
