<svg width="40" height="40" viewBox="0 0 40 40" fill="none" xmlns="http://www.w3.org/2000/svg">
<circle cx="20" cy="20" r="19.5" fill="white" stroke="#067655"/>
<path d="M28.9471 16.305C28.937 15.5476 28.7952 14.7978 28.5281 14.089C28.2964 13.4911 27.9426 12.9482 27.4892 12.4948C27.0359 12.0415 26.4929 11.6876 25.8951 11.456C25.1954 11.1933 24.4562 11.0513 23.7091 11.036C22.7471 10.993 22.4421 10.981 20.0001 10.981C17.5581 10.981 17.2451 10.981 16.2901 11.036C15.5432 11.0514 14.8044 11.1935 14.1051 11.456C13.5071 11.6875 12.9641 12.0412 12.5107 12.4946C12.0573 12.948 11.7036 13.491 11.4721 14.089C11.2089 14.7881 11.0672 15.5271 11.0531 16.274C11.0101 17.237 10.9971 17.542 10.9971 19.984C10.9971 22.426 10.9971 22.738 11.0531 23.694C11.0681 24.442 11.2091 25.18 11.4721 25.881C11.7039 26.4787 12.058 27.0216 12.5115 27.4748C12.965 27.928 13.5081 28.2816 14.1061 28.513C14.8035 28.7862 15.5424 28.9384 16.2911 28.963C17.2541 29.006 17.5591 29.019 20.0011 29.019C22.4431 29.019 22.7561 29.019 23.7111 28.963C24.4582 28.9483 25.1974 28.8066 25.8971 28.544C26.4948 28.3121 27.0376 27.9582 27.4909 27.5048C27.9442 27.0515 28.2982 26.5087 28.5301 25.911C28.7931 25.211 28.9341 24.473 28.9491 23.724C28.9921 22.762 29.0051 22.457 29.0051 20.014C29.0031 17.572 29.0031 17.262 28.9471 16.305ZM19.9941 24.602C17.4401 24.602 15.3711 22.533 15.3711 19.979C15.3711 17.425 17.4401 15.356 19.9941 15.356C21.2202 15.356 22.396 15.8431 23.263 16.71C24.13 17.577 24.6171 18.7529 24.6171 19.979C24.6171 21.2051 24.13 22.381 23.263 23.2479C22.396 24.1149 21.2202 24.602 19.9941 24.602ZM24.8011 16.263C24.6595 16.2631 24.5192 16.2353 24.3884 16.1812C24.2575 16.1271 24.1386 16.0477 24.0385 15.9475C23.9384 15.8474 23.859 15.7285 23.8049 15.5977C23.7507 15.4668 23.7229 15.3266 23.7231 15.185C23.7231 15.0435 23.7509 14.9034 23.8051 14.7726C23.8592 14.6419 23.9386 14.5231 24.0387 14.4231C24.1387 14.323 24.2575 14.2437 24.3882 14.1895C24.519 14.1354 24.6591 14.1075 24.8006 14.1075C24.9421 14.1075 25.0822 14.1354 25.2129 14.1895C25.3436 14.2437 25.4624 14.323 25.5625 14.4231C25.6625 14.5231 25.7419 14.6419 25.7961 14.7726C25.8502 14.9034 25.8781 15.0435 25.8781 15.185C25.8781 15.781 25.3961 16.263 24.8011 16.263Z" fill="#067655"/>
<path d="M19.9942 22.982C21.6527 22.982 22.9972 21.6375 22.9972 19.979C22.9972 18.3205 21.6527 16.976 19.9942 16.976C18.3357 16.976 16.9912 18.3205 16.9912 19.979C16.9912 21.6375 18.3357 22.982 19.9942 22.982Z" fill="#067655"/>
</svg>
