<svg width="70" height="70" viewBox="0 0 70 70" fill="none" xmlns="http://www.w3.org/2000/svg">
<g clip-path="url(#clip0_147_227)">
<path d="M61.0312 12.25H8.96875C7.98248 12.25 7.0366 12.6418 6.3392 13.3392C5.6418 14.0366 5.25 14.9825 5.25 15.9687V53.1562C5.25 54.1425 5.6418 55.0884 6.3392 55.7858C7.0366 56.4832 7.98248 56.875 8.96875 56.875H36.8594L37.9192 55.5734L39.6484 53.4537L39.4811 53.1562H8.96875V15.9687H61.0312V31.885C62.4438 32.7994 63.6996 33.9359 64.75 35.2505V15.9687C64.75 14.9825 64.3582 14.0366 63.6608 13.3392C62.9634 12.6418 62.0175 12.25 61.0312 12.25Z" fill="#067655"/>
<path d="M13.6113 23.3333H46.6669V26.4445H13.6113V23.3333Z" fill="#067655"/>
<path d="M13.6113 31.1111H35.0002V34.2222H13.6113V31.1111Z" fill="#067655"/>
<path d="M13.6113 44.7222H33.0558V47.8333H13.6113V44.7222Z" fill="#067655"/>
<path d="M53.3946 33.5028C50.9063 33.483 48.47 34.2143 46.404 35.6012C44.3379 36.988 42.7383 38.9658 41.8142 41.2762C40.8901 43.5865 40.6844 46.1219 41.224 48.551C41.7637 50.9801 43.0235 53.1899 44.839 54.8917L41.0668 59.5L42.8168 66.5194L49.9334 57.8472C52.1862 58.5133 54.5835 58.5133 56.8362 57.8472L63.9529 66.5194L65.7029 59.5L61.9307 54.8917C63.7461 53.1899 65.006 50.9801 65.5456 48.551C66.0853 46.1219 65.8796 43.5865 64.9555 41.2762C64.0313 38.9658 62.4317 36.988 60.3657 35.6012C58.2997 34.2143 55.8634 33.483 53.3751 33.5028H53.3946ZM53.3946 54.2694C51.7422 54.2464 50.1335 53.7354 48.7708 52.8007C47.408 51.866 46.3521 50.5492 45.7356 49.016C45.1192 47.4827 44.9698 45.8015 45.3062 44.1836C45.6426 42.5657 46.4498 41.0833 47.6264 39.9229C48.8029 38.7625 50.2963 37.9759 51.9187 37.6618C53.5411 37.3478 55.2201 37.5205 56.7447 38.158C58.2693 38.7956 59.5713 39.8697 60.4871 41.2452C61.4029 42.6208 61.8916 44.2364 61.8918 45.8889C61.8712 48.1254 60.9657 50.2628 59.3733 51.8333C57.7808 53.4039 55.6312 54.2798 53.3946 54.2694Z" fill="#067655"/>
</g>
<defs>
<clipPath id="clip0_147_227">
<rect width="70" height="70" fill="white"/>
</clipPath>
</defs>
</svg>
