<svg width="20" height="20" viewBox="0 0 20 20" fill="none" xmlns="http://www.w3.org/2000/svg">
<g clip-path="url(#clip0_1695_9142)">
<path d="M10 4.375C8.88748 4.375 7.79994 4.7049 6.87492 5.32298C5.94989 5.94107 5.22892 6.81957 4.80318 7.84741C4.37743 8.87524 4.26604 10.0062 4.48308 11.0974C4.70012 12.1885 5.23585 13.1908 6.02252 13.9775C6.80919 14.7641 7.81147 15.2999 8.90262 15.5169C9.99376 15.734 11.1248 15.6226 12.1526 15.1968C13.1804 14.7711 14.0589 14.0501 14.677 13.1251C15.2951 12.2001 15.625 11.1125 15.625 10C15.6229 8.50879 15.0296 7.07925 13.9752 6.02481C12.9207 4.97036 11.4912 4.37707 10 4.375ZM10 13.75C9.25832 13.75 8.5333 13.5301 7.91661 13.118C7.29993 12.706 6.81928 12.1203 6.53545 11.4351C6.25162 10.7498 6.17736 9.99584 6.32206 9.26841C6.46675 8.54098 6.8239 7.8728 7.34835 7.34835C7.8728 6.8239 8.54098 6.46675 9.26841 6.32206C9.99584 6.17736 10.7498 6.25162 11.4351 6.53545C12.1203 6.81928 12.706 7.29993 13.118 7.91661C13.5301 8.5333 13.75 9.25832 13.75 10C13.75 10.9946 13.3549 11.9484 12.6517 12.6517C11.9484 13.3549 10.9946 13.75 10 13.75ZM9.0625 2.1875V1.5625C9.0625 1.31386 9.16127 1.0754 9.33709 0.899587C9.5129 0.723772 9.75136 0.625 10 0.625C10.2486 0.625 10.4871 0.723772 10.6629 0.899587C10.8387 1.0754 10.9375 1.31386 10.9375 1.5625V2.1875C10.9375 2.43614 10.8387 2.6746 10.6629 2.85041C10.4871 3.02623 10.2486 3.125 10 3.125C9.75136 3.125 9.5129 3.02623 9.33709 2.85041C9.16127 2.6746 9.0625 2.43614 9.0625 2.1875ZM14.8594 5.14062C14.772 5.05353 14.7026 4.95003 14.6553 4.83608C14.608 4.72213 14.5836 4.59995 14.5836 4.47656C14.5836 4.35317 14.608 4.231 14.6553 4.11705C14.7026 4.00309 14.772 3.8996 14.8594 3.8125L15.3047 3.36719C15.4808 3.19107 15.7197 3.09212 15.9688 3.09212C16.2178 3.09212 16.4567 3.19107 16.6328 3.36719C16.8089 3.54331 16.9079 3.78218 16.9079 4.03125C16.9079 4.28032 16.8089 4.51919 16.6328 4.69531L16.1875 5.14062C16.1002 5.22761 15.9966 5.29653 15.8827 5.34345C15.7687 5.39037 15.6467 5.41436 15.5234 5.41406C15.2749 5.41299 15.0366 5.31487 14.8594 5.14062ZM19.375 10C19.375 10.2486 19.2762 10.4871 19.1004 10.6629C18.9246 10.8387 18.6861 10.9375 18.4375 10.9375H17.8125C17.5639 10.9375 17.3254 10.8387 17.1496 10.6629C16.9738 10.4871 16.875 10.2486 16.875 10C16.875 9.75136 16.9738 9.5129 17.1496 9.33709C17.3254 9.16127 17.5639 9.0625 17.8125 9.0625H18.4375C18.6861 9.0625 18.9246 9.16127 19.1004 9.33709C19.2762 9.5129 19.375 9.75136 19.375 10ZM16.6328 15.3047C16.8056 15.4826 16.9022 15.7208 16.9022 15.9688C16.9022 16.2167 16.8056 16.4549 16.6328 16.6328C16.4547 16.8057 16.217 16.9035 15.9688 16.9062C15.8455 16.9066 15.7234 16.8826 15.6095 16.8356C15.4956 16.7887 15.392 16.7198 15.3047 16.6328L14.8594 16.1875C14.6833 16.0114 14.5843 15.7725 14.5843 15.5234C14.5843 15.2744 14.6833 15.0355 14.8594 14.8594C15.0355 14.6833 15.2744 14.5843 15.5234 14.5843C15.7725 14.5843 16.0114 14.6833 16.1875 14.8594L16.6328 15.3047ZM10.9375 17.8125V18.4375C10.9375 18.6861 10.8387 18.9246 10.6629 19.1004C10.4871 19.2762 10.2486 19.375 10 19.375C9.75136 19.375 9.5129 19.2762 9.33709 19.1004C9.16127 18.9246 9.0625 18.6861 9.0625 18.4375V17.8125C9.0625 17.5639 9.16127 17.3254 9.33709 17.1496C9.5129 16.9738 9.75136 16.875 10 16.875C10.2486 16.875 10.4871 16.9738 10.6629 17.1496C10.8387 17.3254 10.9375 17.5639 10.9375 17.8125ZM5.14062 14.8594C5.22802 14.9465 5.29737 15.05 5.34469 15.1639C5.39201 15.2779 5.41636 15.4 5.41636 15.5234C5.41636 15.6468 5.39201 15.769 5.34469 15.883C5.29737 15.9969 5.22802 16.1004 5.14062 16.1875L4.69531 16.6328C4.60803 16.7198 4.50445 16.7887 4.3905 16.8356C4.27656 16.8826 4.15448 16.9066 4.03125 16.9062C3.78304 16.9035 3.54533 16.8057 3.36719 16.6328C3.19442 16.4549 3.09778 16.2167 3.09778 15.9688C3.09778 15.7208 3.19442 15.4826 3.36719 15.3047L3.8125 14.8594C3.8996 14.772 4.00309 14.7026 4.11705 14.6553C4.231 14.608 4.35317 14.5836 4.47656 14.5836C4.59995 14.5836 4.72213 14.608 4.83608 14.6553C4.95003 14.7026 5.05353 14.772 5.14062 14.8594ZM3.125 10C3.125 10.2486 3.02623 10.4871 2.85041 10.6629C2.6746 10.8387 2.43614 10.9375 2.1875 10.9375H1.5625C1.31386 10.9375 1.0754 10.8387 0.899587 10.6629C0.723772 10.4871 0.625 10.2486 0.625 10C0.625 9.75136 0.723772 9.5129 0.899587 9.33709C1.0754 9.16127 1.31386 9.0625 1.5625 9.0625H2.1875C2.43614 9.0625 2.6746 9.16127 2.85041 9.33709C3.02623 9.5129 3.125 9.75136 3.125 10ZM3.36719 4.69531C3.19107 4.51919 3.09212 4.28032 3.09212 4.03125C3.09212 3.78218 3.19107 3.54331 3.36719 3.36719C3.54331 3.19107 3.78218 3.09212 4.03125 3.09212C4.28032 3.09212 4.51919 3.19107 4.69531 3.36719L5.14062 3.8125C5.22802 3.8996 5.29737 4.00309 5.34469 4.11705C5.39201 4.231 5.41636 4.35317 5.41636 4.47656C5.41636 4.59995 5.39201 4.72213 5.34469 4.83608C5.29737 4.95003 5.22802 5.05353 5.14062 5.14062C4.96339 5.31487 4.7251 5.41299 4.47656 5.41406C4.35333 5.41436 4.23126 5.39037 4.11731 5.34345C4.00336 5.29653 3.89979 5.22761 3.8125 5.14062L3.36719 4.69531Z" fill="#1E1E1E"/>
</g>
<defs>
<clipPath id="clip0_1695_9142">
<rect width="20" height="20" fill="white"/>
</clipPath>
</defs>
</svg>
