<svg width="26" height="26" viewBox="0 0 26 26" fill="none" xmlns="http://www.w3.org/2000/svg">
<g clip-path="url(#clip0_1345_6849)">
<path d="M13 1.88889C9.9796 1.88889 7.53125 4.33724 7.53125 7.35764C7.53125 9.79948 11.1055 14.25 12.4748 15.8654C12.7522 16.1927 13.2483 16.1927 13.5252 15.8654C14.8945 14.25 18.4688 9.79948 18.4688 7.35764C18.4688 4.33724 16.0204 1.88889 13 1.88889ZM13 9.18055C11.9931 9.18055 11.1771 8.36458 11.1771 7.35764C11.1771 6.35069 11.9931 5.53472 13 5.53472C14.0069 5.53472 14.8229 6.35069 14.8229 7.35764C14.8229 8.36458 14.0069 9.18055 13 9.18055ZM1.37326 11.2617C1.11553 11.3648 0.894588 11.5427 0.738936 11.7726C0.583285 12.0024 0.500062 12.2736 0.5 12.5512L0.5 23.4158C0.5 23.9071 0.996094 24.2431 1.45226 24.0608L7.44444 21.3333V11.217C7.06076 10.5234 6.74696 9.84809 6.52214 9.20225L1.37326 11.2617ZM13 17.4996C12.3893 17.4996 11.8116 17.2313 11.4154 16.7635C10.5621 15.7565 9.65451 14.6098 8.83333 13.4336V21.3329L17.1667 24.1107V13.434C16.3455 14.6098 15.4384 15.7569 14.5846 16.7639C14.1884 17.2313 13.6107 17.4996 13 17.4996ZM24.5477 8.88368L18.5556 11.6111V24.1111L24.6267 21.6827C24.8845 21.5797 25.1055 21.4018 25.2611 21.1719C25.4168 20.9421 25.5 20.6708 25.5 20.3932V9.52864C25.5 9.03732 25.0039 8.70139 24.5477 8.88368Z" fill="#067655"/>
</g>
<defs>
<clipPath id="clip0_1345_6849">
<rect width="25" height="25" fill="white" transform="translate(0.5 0.5)"/>
</clipPath>
</defs>
</svg>
