<svg width="60" height="60" viewBox="0 0 60 60" fill="none" xmlns="http://www.w3.org/2000/svg">
<path d="M30 5.625C25.1791 5.625 20.4664 7.05457 16.458 9.73293C12.4495 12.4113 9.32533 16.2181 7.48045 20.6721C5.63556 25.126 5.15285 30.027 6.09337 34.7553C7.03388 39.4836 9.35538 43.8268 12.7643 47.2357C16.1732 50.6446 20.5164 52.9661 25.2447 53.9066C29.973 54.8472 34.874 54.3644 39.3279 52.5196C43.7819 50.6747 47.5887 47.5505 50.2671 43.542C52.9454 39.5336 54.375 34.8209 54.375 30C54.3688 23.5373 51.7987 17.341 47.2289 12.7711C42.659 8.20127 36.4628 5.63121 30 5.625ZM39.375 31.875H31.875V39.375C31.875 39.8723 31.6775 40.3492 31.3258 40.7008C30.9742 41.0525 30.4973 41.25 30 41.25C29.5027 41.25 29.0258 41.0525 28.6742 40.7008C28.3226 40.3492 28.125 39.8723 28.125 39.375V31.875H20.625C20.1277 31.875 19.6508 31.6775 19.2992 31.3258C18.9476 30.9742 18.75 30.4973 18.75 30C18.75 29.5027 18.9476 29.0258 19.2992 28.6742C19.6508 28.3225 20.1277 28.125 20.625 28.125H28.125V20.625C28.125 20.1277 28.3226 19.6508 28.6742 19.2992C29.0258 18.9475 29.5027 18.75 30 18.75C30.4973 18.75 30.9742 18.9475 31.3258 19.2992C31.6775 19.6508 31.875 20.1277 31.875 20.625V28.125H39.375C39.8723 28.125 40.3492 28.3225 40.7008 28.6742C41.0525 29.0258 41.25 29.5027 41.25 30C41.25 30.4973 41.0525 30.9742 40.7008 31.3258C40.3492 31.6775 39.8723 31.875 39.375 31.875Z" fill="#067655"/>
</svg>
