<svg width="80" height="80" viewBox="0 0 80 80" fill="none" xmlns="http://www.w3.org/2000/svg">
<circle cx="40" cy="40" r="40" fill="#262626" fill-opacity="0.2"/>
<circle cx="40" cy="39.6364" r="30" fill="#262626"/>
<path d="M42.6665 49.3333C47.6945 49.3333 50.2092 49.3333 51.7705 47.7707C53.3332 46.2093 53.3332 43.6947 53.3332 38.6667C53.3332 33.6387 53.3332 31.124 51.7705 29.5627C50.2092 28 47.6945 28 42.6665 28H37.3332C32.3052 28 29.7905 28 28.2292 29.5627C26.6665 31.124 26.6665 33.6387 26.6665 38.6667C26.6665 43.6947 26.6665 46.2093 28.2292 47.7707C29.0998 48.6427 30.2665 49.028 31.9998 49.1973" stroke="white" stroke-width="2" stroke-linecap="round" stroke-linejoin="round"/>
<path d="M37.3332 35.312C37.9998 33.992 38.6665 33.3333 39.9998 33.3333C41.6612 33.3333 42.6665 34.652 42.6665 35.9707C42.6665 37.2893 41.9998 37.348 39.9998 38.6667V40M39.9998 43.3333V44M42.6665 49.3333C41.0185 49.3333 39.2025 50 37.5452 50.86C34.8812 52.2427 33.5492 52.9347 32.8932 52.4933C32.2372 52.0533 32.3612 50.6867 32.6105 47.9547L32.6665 47.3333" stroke="white" stroke-width="2" stroke-linecap="round"/>
</svg>
