<svg width="16" height="16" viewBox="0 0 16 16" fill="none" xmlns="http://www.w3.org/2000/svg">
<path d="M8 0.999954C4.13438 0.999954 1 4.13433 1 7.99995C1 11.8656 4.13438 15 8 15C11.8656 15 15 11.8656 15 7.99995C15 4.13433 11.8656 0.999954 8 0.999954ZM8 12.0625C7.65469 12.0625 7.375 11.7828 7.375 11.4375C7.375 11.0921 7.65469 10.8125 8 10.8125C8.34531 10.8125 8.625 11.0921 8.625 11.4375C8.625 11.7828 8.34531 12.0625 8 12.0625ZM8.98281 8.63277C8.84131 8.68741 8.71955 8.78343 8.63343 8.90829C8.54731 9.03316 8.50081 9.18108 8.5 9.33277V9.68745C8.5 9.7562 8.44375 9.81245 8.375 9.81245H7.625C7.55625 9.81245 7.5 9.7562 7.5 9.68745V9.35152C7.5 8.99058 7.60469 8.63433 7.81094 8.33745C8.0125 8.04683 8.29375 7.82495 8.625 7.69839C9.15625 7.4937 9.5 7.04839 9.5 6.56245C9.5 5.87339 8.82656 5.31245 8 5.31245C7.17344 5.31245 6.5 5.87339 6.5 6.56245V6.6812C6.5 6.74995 6.44375 6.8062 6.375 6.8062H5.625C5.55625 6.8062 5.5 6.74995 5.5 6.6812V6.56245C5.5 5.94839 5.76875 5.37495 6.25625 4.94839C6.725 4.53745 7.34375 4.31245 8 4.31245C8.65625 4.31245 9.275 4.53902 9.74375 4.94839C10.2312 5.37495 10.5 5.94839 10.5 6.56245C10.5 7.46558 9.90469 8.27808 8.98281 8.63277Z" fill="#595959"/>
</svg>
