<svg width="25" height="24" viewBox="0 0 25 24" fill="none" xmlns="http://www.w3.org/2000/svg">
<path d="M6.5 8C6.5 7.73478 6.60536 7.48043 6.79289 7.29289C6.98043 7.10536 7.23478 7 7.5 7H17.5C17.7652 7 18.0196 7.10536 18.2071 7.29289C18.3946 7.48043 18.5 7.73478 18.5 8C18.5 8.26522 18.3946 8.51957 18.2071 8.70711C18.0196 8.89464 17.7652 9 17.5 9H7.5C7.23478 9 6.98043 8.89464 6.79289 8.70711C6.60536 8.51957 6.5 8.26522 6.5 8ZM8.5 12C8.5 11.7348 8.60536 11.4804 8.79289 11.2929C8.98043 11.1054 9.23478 11 9.5 11H15.5C15.7652 11 16.0196 11.1054 16.2071 11.2929C16.3946 11.4804 16.5 11.7348 16.5 12C16.5 12.2652 16.3946 12.5196 16.2071 12.7071C16.0196 12.8946 15.7652 13 15.5 13H9.5C9.23478 13 8.98043 12.8946 8.79289 12.7071C8.60536 12.5196 8.5 12.2652 8.5 12ZM11.5 15C11.2348 15 10.9804 15.1054 10.7929 15.2929C10.6054 15.4804 10.5 15.7348 10.5 16C10.5 16.2652 10.6054 16.5196 10.7929 16.7071C10.9804 16.8946 11.2348 17 11.5 17H13.5C13.7652 17 14.0196 16.8946 14.2071 16.7071C14.3946 16.5196 14.5 16.2652 14.5 16C14.5 15.7348 14.3946 15.4804 14.2071 15.2929C14.0196 15.1054 13.7652 15 13.5 15H11.5Z" fill="black"/>
</svg>
