<svg width="24" height="24" viewBox="0 0 24 24" fill="none" xmlns="http://www.w3.org/2000/svg">
<g clip-path="url(#clip0_3_17)">
<path d="M23.0571 15.0455L21.3027 13.5455C21.3857 13.0366 21.4286 12.517 21.4286 11.9973C21.4286 11.4777 21.3857 10.958 21.3027 10.4491L23.0571 8.94911C23.1895 8.83582 23.2842 8.68494 23.3287 8.51651C23.3732 8.34809 23.3654 8.17012 23.3063 8.00625L23.2821 7.93661C22.7991 6.58668 22.0759 5.33527 21.1473 4.24286L21.0991 4.18661C20.9865 4.05416 20.8363 3.95895 20.6685 3.91352C20.5007 3.8681 20.323 3.87459 20.1589 3.93214L17.9813 4.70625C17.1777 4.04732 16.2804 3.52768 15.3107 3.16339L14.8902 0.886608C14.8585 0.715293 14.7754 0.557686 14.6519 0.434727C14.5285 0.311768 14.3705 0.229278 14.1991 0.198215L14.1268 0.184822C12.7313 -0.0669633 11.2634 -0.0669633 9.86786 0.184822L9.79554 0.198215C9.6241 0.229278 9.46617 0.311768 9.34274 0.434727C9.2193 0.557686 9.1362 0.715293 9.10447 0.886608L8.68125 3.17411C7.71935 3.53847 6.82357 4.05784 6.02947 4.71161L3.83572 3.93214C3.6717 3.87413 3.49391 3.8674 3.32597 3.91286C3.15804 3.95831 3.00791 4.05379 2.89554 4.18661L2.84732 4.24286C1.91986 5.33605 1.19672 6.58724 0.712502 7.93661L0.688395 8.00625C0.567859 8.34107 0.666967 8.71607 0.937502 8.94911L2.7134 10.4652C2.63036 10.9688 2.59018 11.483 2.59018 11.9946C2.59018 12.5089 2.63036 13.0232 2.7134 13.5241L0.937502 15.0402C0.805169 15.1535 0.710457 15.3044 0.665959 15.4728C0.621462 15.6412 0.629287 15.8192 0.688395 15.983L0.712502 16.0527C1.19732 17.4027 1.91518 18.6482 2.84732 19.7464L2.89554 19.8027C3.00818 19.9351 3.15832 20.0303 3.32615 20.0758C3.49399 20.1212 3.67165 20.1147 3.83572 20.0571L6.02947 19.2777C6.82768 19.9339 7.71965 20.4536 8.68125 20.8152L9.10447 23.1027C9.1362 23.274 9.2193 23.4316 9.34274 23.5546C9.46617 23.6775 9.6241 23.76 9.79554 23.7911L9.86786 23.8045C11.2762 24.0576 12.7184 24.0576 14.1268 23.8045L14.1991 23.7911C14.3705 23.76 14.5285 23.6775 14.6519 23.5546C14.7754 23.4316 14.8585 23.274 14.8902 23.1027L15.3107 20.8259C16.28 20.4626 17.1824 19.9412 17.9813 19.283L20.1589 20.0571C20.323 20.1152 20.5007 20.1219 20.6687 20.0764C20.8366 20.031 20.9867 19.9355 21.0991 19.8027L21.1473 19.7464C22.0795 18.6455 22.7973 17.4027 23.2821 16.0527L23.3063 15.983C23.4268 15.6536 23.3277 15.2786 23.0571 15.0455V15.0455ZM19.4009 10.7652C19.4679 11.1696 19.5027 11.5848 19.5027 12C19.5027 12.4152 19.4679 12.8304 19.4009 13.2348L19.2241 14.3089L21.225 16.0205C20.9217 16.7193 20.5388 17.3809 20.0839 17.992L17.5982 17.1107L16.7571 17.8018C16.117 18.3268 15.4045 18.7393 14.633 19.0286L13.6125 19.4116L13.133 22.0098C12.3765 22.0955 11.6128 22.0955 10.8563 22.0098L10.3768 19.4063L9.36429 19.0179C8.6009 18.7286 7.89107 18.3161 7.25625 17.7938L6.41518 17.1L3.9134 17.9893C3.45804 17.3759 3.07768 16.7143 2.77232 16.0179L4.79465 14.2902L4.62054 13.2188C4.55625 12.8196 4.52143 12.4071 4.52143 12C4.52143 11.5902 4.55357 11.1804 4.62054 10.7813L4.79465 9.70982L2.77232 7.98214C3.075 7.28304 3.45804 6.62411 3.9134 6.01071L6.41518 6.9L7.25625 6.20625C7.89107 5.68393 8.6009 5.27143 9.36429 4.98214L10.3795 4.59911L10.8589 1.99554C11.6116 1.90982 12.3804 1.90982 13.1357 1.99554L13.6152 4.59375L14.6357 4.97679C15.4045 5.26607 16.1196 5.67857 16.7598 6.20357L17.6009 6.89464L20.0866 6.01339C20.542 6.62679 20.9223 7.28839 21.2277 7.98482L19.2268 9.69643L19.4009 10.7652ZM12 7.01786C9.39643 7.01786 7.28572 9.12857 7.28572 11.7321C7.28572 14.3357 9.39643 16.4464 12 16.4464C14.6036 16.4464 16.7143 14.3357 16.7143 11.7321C16.7143 9.12857 14.6036 7.01786 12 7.01786ZM14.1214 13.8536C13.8432 14.1326 13.5125 14.3539 13.1484 14.5047C12.7844 14.6555 12.3941 14.7328 12 14.7321C11.1991 14.7321 10.4464 14.4188 9.87857 13.8536C9.59953 13.5753 9.37825 13.2447 9.22747 12.8806C9.0767 12.5165 8.99939 12.1262 9 11.7321C9 10.9313 9.3134 10.1786 9.87857 9.61071C10.4464 9.04286 11.1991 8.73214 12 8.73214C12.8009 8.73214 13.5536 9.04286 14.1214 9.61071C14.4005 9.88896 14.6218 10.2196 14.7725 10.5837C14.9233 10.9478 15.0006 11.3381 15 11.7321C15 12.533 14.6866 13.2857 14.1214 13.8536Z" fill="white"/>
</g>
<defs>
<clipPath id="clip0_3_17">
<rect width="24" height="24" fill="white"/>
</clipPath>
</defs>
</svg>
