<svg width="24" height="24" viewBox="0 0 24 24" fill="none" xmlns="http://www.w3.org/2000/svg">
<g clip-path="url(#clip0_3_19)">
<path d="M12.0134 8.74822C11.2125 8.74822 10.4625 9.05893 9.89464 9.62679C9.32946 10.1946 9.01607 10.9446 9.01607 11.7455C9.01607 12.5464 9.32946 13.2964 9.89464 13.8643C10.4625 14.4295 11.2125 14.7429 12.0134 14.7429C12.8143 14.7429 13.5643 14.4295 14.1321 13.8643C14.6973 13.2964 15.0107 12.5464 15.0107 11.7455C15.0107 10.9446 14.6973 10.1946 14.1321 9.62679C13.8548 9.3473 13.5247 9.1257 13.1609 8.97488C12.7972 8.82406 12.4071 8.74701 12.0134 8.74822V8.74822ZM23.0571 15.0563L21.3054 13.5589C21.3884 13.05 21.4312 12.5304 21.4312 12.0134C21.4312 11.4964 21.3884 10.9741 21.3054 10.4679L23.0571 8.97054C23.1895 8.85725 23.2842 8.70637 23.3287 8.53794C23.3732 8.36952 23.3654 8.19155 23.3062 8.02768L23.2821 7.95804C22.8 6.60989 22.0777 5.36024 21.15 4.26964L21.1018 4.21339C20.9891 4.08094 20.839 3.98573 20.6712 3.94031C20.5033 3.89488 20.3257 3.90137 20.1616 3.95893L17.9866 4.73304C17.183 4.07411 16.2884 3.55447 15.3187 3.19286L14.8982 0.918751C14.8665 0.747435 14.7834 0.589829 14.6599 0.46687C14.5365 0.343911 14.3786 0.261421 14.2071 0.230358L14.1348 0.216965C12.742 -0.0348207 11.2741 -0.0348207 9.88125 0.216965L9.80893 0.230358C9.63749 0.261421 9.47956 0.343911 9.35612 0.46687C9.23269 0.589829 9.14958 0.747435 9.11785 0.918751L8.69464 3.20357C7.73418 3.56806 6.83945 4.08645 6.04553 4.73839L3.85446 3.95893C3.69044 3.90092 3.51265 3.89419 3.34472 3.93964C3.17678 3.9851 3.02665 4.08058 2.91428 4.21339L2.86607 4.26964C1.94007 5.3614 1.21787 6.61074 0.733926 7.95804L0.709819 8.02768C0.589283 8.3625 0.688391 8.7375 0.958926 8.97054L2.73214 10.4839C2.6491 10.9875 2.60893 11.5018 2.60893 12.0107C2.60893 12.525 2.6491 13.0393 2.73214 13.5375L0.964283 15.0509C0.83195 15.1642 0.737238 15.3151 0.69274 15.4835C0.648243 15.6519 0.656068 15.8299 0.715176 15.9938L0.739283 16.0634C1.2241 17.4107 1.93928 18.6563 2.87143 19.7518L2.91964 19.808C3.03229 19.9405 3.18242 20.0357 3.35025 20.0811C3.51809 20.1266 3.69575 20.1201 3.85982 20.0625L6.05089 19.283C6.8491 19.9393 7.73839 20.4589 8.7 20.8179L9.12321 23.1027C9.15494 23.274 9.23804 23.4316 9.36148 23.5546C9.48492 23.6775 9.64285 23.76 9.81428 23.7911L9.88661 23.8045C11.2932 24.0576 12.7336 24.0576 14.1402 23.8045L14.2125 23.7911C14.3839 23.76 14.5419 23.6775 14.6653 23.5546C14.7887 23.4316 14.8718 23.274 14.9036 23.1027L15.3241 20.8286C16.2937 20.4643 17.1884 19.9473 17.992 19.2884L20.167 20.0625C20.331 20.1205 20.5088 20.1272 20.6767 20.0818C20.8446 20.0363 20.9948 19.9409 21.1071 19.808L21.1554 19.7518C22.0875 18.6509 22.8027 17.4107 23.2875 16.0634L23.3116 15.9938C23.4268 15.6616 23.3277 15.2893 23.0571 15.0563ZM12.0134 16.4545C9.4125 16.4545 7.30446 14.3464 7.30446 11.7455C7.30446 9.14464 9.4125 7.03661 12.0134 7.03661C14.6143 7.03661 16.7223 9.14464 16.7223 11.7455C16.7223 14.3464 14.6143 16.4545 12.0134 16.4545Z" fill="white"/>
</g>
<defs>
<clipPath id="clip0_3_19">
<rect width="24" height="24" fill="white"/>
</clipPath>
</defs>
</svg>
