<svg width="24" height="24" viewBox="0 0 24 24" fill="none" xmlns="http://www.w3.org/2000/svg">
<g clip-path="url(#clip0_291_133)">
<path d="M23.0573 15.0455L21.3029 13.5455C21.3859 13.0366 21.4288 12.517 21.4288 11.9973C21.4288 11.4777 21.3859 10.958 21.3029 10.4491L23.0573 8.9491C23.1897 8.83581 23.2844 8.68493 23.3289 8.5165C23.3734 8.34808 23.3656 8.1701 23.3065 8.00624L23.2823 7.9366C22.7993 6.58667 22.0761 5.33526 21.1475 4.24285L21.0993 4.1866C20.9867 4.05415 20.8365 3.95894 20.6687 3.91351C20.5009 3.86808 20.3232 3.87458 20.1591 3.93213L17.9815 4.70624C17.1779 4.04731 16.2806 3.52767 15.3109 3.16338L14.8904 0.886597C14.8587 0.715281 14.7755 0.557675 14.6521 0.434716C14.5287 0.311757 14.3707 0.229266 14.1993 0.198204L14.127 0.184811C12.7315 -0.0669747 11.2636 -0.0669747 9.86806 0.184811L9.79574 0.198204C9.6243 0.229266 9.46637 0.311757 9.34293 0.434716C9.2195 0.557675 9.13639 0.715281 9.10467 0.886597L8.68145 3.1741C7.71955 3.53846 6.82377 4.05783 6.02967 4.7116L3.83592 3.93213C3.6719 3.87412 3.4941 3.86739 3.32617 3.91285C3.15824 3.9583 3.00811 4.05378 2.89574 4.1866L2.84752 4.24285C1.92006 5.33604 1.19692 6.58723 0.712701 7.9366L0.688594 8.00624C0.568058 8.34106 0.667165 8.71606 0.937701 8.9491L2.71359 10.4652C2.63056 10.9687 2.59038 11.483 2.59038 11.9946C2.59038 12.5089 2.63056 13.0232 2.71359 13.5241L0.937701 15.0402C0.805368 15.1535 0.710656 15.3043 0.666158 15.4728C0.62166 15.6412 0.629485 15.8192 0.688594 15.983L0.712701 16.0527C1.19752 17.4027 1.91538 18.6482 2.84752 19.7464L2.89574 19.8027C3.00838 19.9351 3.15851 20.0303 3.32635 20.0758C3.49418 20.1212 3.67184 20.1147 3.83592 20.0571L6.02967 19.2777C6.82788 19.9339 7.71984 20.4536 8.68145 20.8152L9.10467 23.1027C9.13639 23.274 9.2195 23.4316 9.34293 23.5546C9.46637 23.6775 9.6243 23.76 9.79574 23.7911L9.86806 23.8045C11.2764 24.0576 12.7186 24.0576 14.127 23.8045L14.1993 23.7911C14.3707 23.76 14.5287 23.6775 14.6521 23.5546C14.7755 23.4316 14.8587 23.274 14.8904 23.1027L15.3109 20.8259C16.2802 20.4626 17.1826 19.9412 17.9815 19.283L20.1591 20.0571C20.3232 20.1151 20.5009 20.1219 20.6689 20.0764C20.8368 20.031 20.9869 19.9355 21.0993 19.8027L21.1475 19.7464C22.0797 18.6455 22.7975 17.4027 23.2823 16.0527L23.3065 15.983C23.427 15.6536 23.3279 15.2786 23.0573 15.0455ZM19.4011 10.7652C19.4681 11.1696 19.5029 11.5848 19.5029 12C19.5029 12.4152 19.4681 12.8303 19.4011 13.2348L19.2243 14.3089L21.2252 16.0205C20.9219 16.7193 20.539 17.3808 20.0841 17.992L17.5984 17.1107L16.7573 17.8018C16.1172 18.3268 15.4047 18.7393 14.6332 19.0286L13.6127 19.4116L13.1332 22.0098C12.3767 22.0955 11.613 22.0955 10.8565 22.0098L10.377 19.4062L9.36449 19.0178C8.60109 18.7286 7.89127 18.3161 7.25645 17.7937L6.41538 17.1L3.91359 17.9893C3.45824 17.3759 3.07788 16.7143 2.77252 16.0178L4.79484 14.2902L4.62074 13.2187C4.55645 12.8196 4.52163 12.4071 4.52163 12C4.52163 11.5902 4.55377 11.1803 4.62074 10.7812L4.79484 9.70981L2.77252 7.98213C3.0752 7.28303 3.45824 6.6241 3.91359 6.0107L6.41538 6.89999L7.25645 6.20624C7.89127 5.68392 8.60109 5.27142 9.36449 4.98213L10.3797 4.5991L10.8591 1.99553C11.6118 1.90981 12.3806 1.90981 13.1359 1.99553L13.6154 4.59374L14.6359 4.97678C15.4047 5.26606 16.1198 5.67856 16.76 6.20356L17.6011 6.89463L20.0868 6.01338C20.5422 6.62678 20.9225 7.28838 21.2279 7.98481L19.227 9.69642L19.4011 10.7652ZM12.0002 7.01785C9.39663 7.01785 7.28592 9.12856 7.28592 11.7321C7.28592 14.3357 9.39663 16.4464 12.0002 16.4464C14.6038 16.4464 16.7145 14.3357 16.7145 11.7321C16.7145 9.12856 14.6038 7.01785 12.0002 7.01785ZM14.1216 13.8536C13.8434 14.1326 13.5127 14.3539 13.1486 14.5047C12.7846 14.6554 12.3943 14.7327 12.0002 14.7321C11.1993 14.7321 10.4466 14.4187 9.87877 13.8536C9.59973 13.5753 9.37845 13.2446 9.22767 12.8806C9.07689 12.5165 8.99959 12.1262 9.0002 11.7321C9.0002 10.9312 9.31359 10.1786 9.87877 9.6107C10.4466 9.04285 11.1993 8.73213 12.0002 8.73213C12.8011 8.73213 13.5538 9.04285 14.1216 9.6107C14.4007 9.88895 14.622 10.2196 14.7727 10.5837C14.9235 10.9478 15.0008 11.3381 15.0002 11.7321C15.0002 12.533 14.6868 13.2857 14.1216 13.8536Z" fill="#595959"/>
</g>
<defs>
<clipPath id="clip0_291_133">
<rect width="24" height="24" fill="white"/>
</clipPath>
</defs>
</svg>
