<svg width="24" height="24" viewBox="0 0 24 24" fill="none" xmlns="http://www.w3.org/2000/svg">
<g clip-path="url(#clip0_147_363)">
<path d="M12.0134 8.74823C11.2125 8.74823 10.4625 9.05894 9.89466 9.6268C9.32948 10.1947 9.01608 10.9447 9.01608 11.7455C9.01608 12.5464 9.32948 13.2964 9.89466 13.8643C10.4625 14.4295 11.2125 14.7429 12.0134 14.7429C12.8143 14.7429 13.5643 14.4295 14.1322 13.8643C14.6973 13.2964 15.0107 12.5464 15.0107 11.7455C15.0107 10.9447 14.6973 10.1947 14.1322 9.6268C13.8548 9.34731 13.5247 9.12572 13.1609 8.97489C12.7972 8.82407 12.4072 8.74702 12.0134 8.74823ZM23.0572 15.0563L21.3054 13.5589C21.3884 13.05 21.4313 12.5304 21.4313 12.0134C21.4313 11.4964 21.3884 10.9741 21.3054 10.4679L23.0572 8.97055C23.1895 8.85726 23.2842 8.70638 23.3287 8.53796C23.3732 8.36953 23.3654 8.19156 23.3063 8.02769L23.2822 7.95805C22.8 6.6099 22.0777 5.36025 21.15 4.26966L21.1018 4.21341C20.9892 4.08096 20.839 3.98574 20.6712 3.94032C20.5034 3.89489 20.3257 3.90139 20.1616 3.95894L17.9866 4.73305C17.183 4.07412 16.2884 3.55448 15.3188 3.19287L14.8982 0.918762C14.8665 0.747447 14.7834 0.58984 14.66 0.466881C14.5365 0.343922 14.3786 0.261432 14.2072 0.230369L14.1348 0.216976C12.742 -0.0348092 11.2741 -0.0348092 9.88126 0.216976L9.80894 0.230369C9.6375 0.261432 9.47958 0.343922 9.35614 0.466881C9.2327 0.58984 9.1496 0.747447 9.11787 0.918762L8.69466 3.20358C7.7342 3.56807 6.83946 4.08646 6.04555 4.73841L3.85448 3.95894C3.69046 3.90093 3.51267 3.8942 3.34473 3.93965C3.1768 3.98511 3.02667 4.08059 2.9143 4.21341L2.86608 4.26966C1.94008 5.36141 1.21788 6.61075 0.733942 7.95805L0.709834 8.02769C0.589299 8.36251 0.688406 8.73751 0.958942 8.97055L2.73216 10.4839C2.64912 10.9875 2.60894 11.5018 2.60894 12.0107C2.60894 12.525 2.64912 13.0393 2.73216 13.5375L0.964299 15.0509C0.831966 15.1642 0.737253 15.3151 0.692756 15.4835C0.648258 15.6519 0.656083 15.8299 0.715191 15.9938L0.739299 16.0634C1.22412 17.4107 1.9393 18.6563 2.87144 19.7518L2.91966 19.8081C3.0323 19.9405 3.18243 20.0357 3.35027 20.0811C3.5181 20.1266 3.69576 20.1201 3.85983 20.0625L6.05091 19.2831C6.84912 19.9393 7.73841 20.4589 8.70001 20.8179L9.12323 23.1027C9.15496 23.274 9.23806 23.4316 9.3615 23.5546C9.48493 23.6775 9.64286 23.76 9.8143 23.7911L9.88662 23.8045C11.2932 24.0576 12.7336 24.0576 14.1402 23.8045L14.2125 23.7911C14.384 23.76 14.5419 23.6775 14.6653 23.5546C14.7888 23.4316 14.8719 23.274 14.9036 23.1027L15.3241 20.8286C16.2938 20.4643 17.1884 19.9473 17.992 19.2884L20.167 20.0625C20.331 20.1205 20.5088 20.1273 20.6767 20.0818C20.8447 20.0363 20.9948 19.9409 21.1072 19.8081L21.1554 19.7518C22.0875 18.6509 22.8027 17.4107 23.2875 16.0634L23.3116 15.9938C23.4268 15.6616 23.3277 15.2893 23.0572 15.0563ZM12.0134 16.4545C9.41251 16.4545 7.30448 14.3464 7.30448 11.7455C7.30448 9.14466 9.41251 7.03662 12.0134 7.03662C14.6143 7.03662 16.7223 9.14466 16.7223 11.7455C16.7223 14.3464 14.6143 16.4545 12.0134 16.4545Z" fill="#595959"/>
</g>
<defs>
<clipPath id="clip0_147_363">
<rect width="24" height="24" fill="white"/>
</clipPath>
</defs>
</svg>
