<svg width="21" height="20" viewBox="0 0 21 20" fill="none" xmlns="http://www.w3.org/2000/svg">
<path d="M14.6924 4.85C14.6924 4.85 15.1174 5.26667 14.6924 4.85C14.1227 4.19969 13.8088 3.36453 13.809 2.5H11.234V12.8333C11.2142 13.3925 10.9781 13.9222 10.5755 14.3108C10.1729 14.6994 9.63522 14.9166 9.07568 14.9167C7.89235 14.9167 6.90902 13.95 6.90902 12.75C6.90902 11.3167 8.29235 10.2417 9.71735 10.6833V8.05C6.84235 7.66667 4.32568 9.9 4.32568 12.75C4.32568 15.525 6.62568 17.5 9.06735 17.5C11.684 17.5 13.809 15.375 13.809 12.75V7.50833C14.8532 8.25821 16.1068 8.66054 17.3924 8.65833V6.08333C17.3924 6.08333 15.8257 6.15833 14.6924 4.85Z" fill="white"/>
</svg>
