<svg width="24" height="24" viewBox="0 0 24 24" fill="none" xmlns="http://www.w3.org/2000/svg">
<path d="M23 2.99998C22.0424 3.67545 20.9821 4.19209 19.86 4.52998C19.2577 3.83749 18.4573 3.34667 17.567 3.1239C16.6767 2.90114 15.7395 2.95717 14.8821 3.28443C14.0247 3.61169 13.2884 4.19438 12.773 4.95369C12.2575 5.71301 11.9877 6.61231 12 7.52998V8.52998C10.2426 8.57555 8.50127 8.18579 6.93101 7.39542C5.36074 6.60506 4.01032 5.43861 3 3.99998C3 3.99998 -1 13 8 17C5.94053 18.3979 3.48716 19.0989 1 19C10 24 21 19 21 7.49998C20.9991 7.22143 20.9723 6.94357 20.92 6.66998C21.9406 5.66347 22.6608 4.39269 23 2.99998Z" fill="#067655"/>
</svg>
