<svg width="24" height="24" viewBox="0 0 24 24" fill="none" xmlns="http://www.w3.org/2000/svg">
<path d="M21.2815 18.7393C20.7762 17.5424 20.0429 16.4553 19.1225 15.5384C18.2049 14.6189 17.118 13.8857 15.9216 13.3795C15.9109 13.3741 15.9002 13.3714 15.8895 13.3661C17.5582 12.1607 18.6431 10.1973 18.6431 7.98215C18.6431 4.31251 15.6698 1.33929 12.0002 1.33929C8.33056 1.33929 5.35735 4.31251 5.35735 7.98215C5.35735 10.1973 6.44217 12.1607 8.11092 13.3688C8.10021 13.3741 8.08949 13.3768 8.07878 13.3822C6.87878 13.8884 5.80199 14.6143 4.87789 15.5411C3.95836 16.4587 3.22522 17.5456 2.71896 18.742C2.22161 19.9132 1.95337 21.1689 1.92878 22.4411C1.92806 22.4697 1.93308 22.4981 1.94353 22.5247C1.95397 22.5514 1.96964 22.5756 1.98961 22.5961C2.00958 22.6165 2.03345 22.6328 2.0598 22.6439C2.08616 22.655 2.11447 22.6607 2.14306 22.6607H3.75021C3.86806 22.6607 3.96181 22.567 3.96449 22.4518C4.01806 20.3839 4.84842 18.4473 6.31628 16.9795C7.83503 15.4607 9.85199 14.625 12.0002 14.625C14.1484 14.625 16.1654 15.4607 17.6841 16.9795C19.152 18.4473 19.9823 20.3839 20.0359 22.4518C20.0386 22.5697 20.1323 22.6607 20.2502 22.6607H21.8573C21.8859 22.6607 21.9143 22.655 21.9406 22.6439C21.967 22.6328 21.9908 22.6165 22.0108 22.5961C22.0308 22.5756 22.0464 22.5514 22.0569 22.5247C22.0673 22.4981 22.0723 22.4697 22.0716 22.4411C22.0448 21.1607 21.7797 19.9152 21.2815 18.7393ZM12.0002 12.5893C10.7707 12.5893 9.6136 12.1098 8.74306 11.2393C7.87253 10.3688 7.39306 9.21162 7.39306 7.98215C7.39306 6.75269 7.87253 5.59554 8.74306 4.72501C9.6136 3.85447 10.7707 3.37501 12.0002 3.37501C13.2297 3.37501 14.3868 3.85447 15.2573 4.72501C16.1279 5.59554 16.6073 6.75269 16.6073 7.98215C16.6073 9.21162 16.1279 10.3688 15.2573 11.2393C14.3868 12.1098 13.2297 12.5893 12.0002 12.5893Z" fill="#595959"/>
</svg>
