<svg width="24" height="24" viewBox="0 0 24 24" fill="none" xmlns="http://www.w3.org/2000/svg">
<path d="M21.2812 18.7393C20.776 17.5424 20.0427 16.4553 19.1223 15.5384C18.2047 14.6189 17.1178 13.8857 15.9214 13.3795C15.9107 13.3741 15.9 13.3714 15.8893 13.3661C17.558 12.1607 18.6429 10.1973 18.6429 7.98214C18.6429 4.3125 15.6696 1.33929 12 1.33929C8.33035 1.33929 5.35714 4.3125 5.35714 7.98214C5.35714 10.1973 6.44196 12.1607 8.11071 13.3688C8.09999 13.3741 8.08928 13.3768 8.07856 13.3821C6.87856 13.8884 5.80178 14.6143 4.87767 15.5411C3.95814 16.4587 3.225 17.5456 2.71874 18.742C2.22139 19.9132 1.95316 21.1689 1.92856 22.4411C1.92785 22.4697 1.93286 22.4981 1.94331 22.5247C1.95376 22.5513 1.96943 22.5756 1.9894 22.5961C2.00937 22.6165 2.03324 22.6328 2.05959 22.6439C2.08594 22.655 2.11425 22.6607 2.14285 22.6607H3.74999C3.86785 22.6607 3.9616 22.567 3.96428 22.4518C4.01785 20.3839 4.84821 18.4473 6.31606 16.9795C7.83481 15.4607 9.85178 14.625 12 14.625C14.1482 14.625 16.1652 15.4607 17.6839 16.9795C19.1518 18.4473 19.9821 20.3839 20.0357 22.4518C20.0384 22.5696 20.1321 22.6607 20.25 22.6607H21.8571C21.8857 22.6607 21.914 22.655 21.9404 22.6439C21.9668 22.6328 21.9906 22.6165 22.0106 22.5961C22.0306 22.5756 22.0462 22.5513 22.0567 22.5247C22.0671 22.4981 22.0721 22.4697 22.0714 22.4411C22.0446 21.1607 21.7795 19.9152 21.2812 18.7393V18.7393ZM12 12.5893C10.7705 12.5893 9.61339 12.1098 8.74285 11.2393C7.87231 10.3688 7.39285 9.21161 7.39285 7.98214C7.39285 6.75268 7.87231 5.59554 8.74285 4.725C9.61339 3.85447 10.7705 3.375 12 3.375C13.2295 3.375 14.3866 3.85447 15.2571 4.725C16.1277 5.59554 16.6071 6.75268 16.6071 7.98214C16.6071 9.21161 16.1277 10.3688 15.2571 11.2393C14.3866 12.1098 13.2295 12.5893 12 12.5893Z" fill="white"/>
</svg>
