<svg width="25" height="24" viewBox="0 0 25 24" fill="none" xmlns="http://www.w3.org/2000/svg">
<path fill-rule="evenodd" clip-rule="evenodd" d="M9.14453 7C9.14453 5.34315 10.4877 4 12.1445 4C13.8014 4 15.1445 5.34315 15.1445 7C15.1445 8.65685 13.8014 10 12.1445 10C10.4877 10 9.14453 8.65685 9.14453 7ZM12.1445 2C9.38311 2 7.14453 4.23858 7.14453 7C7.14453 9.76142 9.38311 12 12.1445 12C14.906 12 17.1445 9.76142 17.1445 7C17.1445 4.23858 14.906 2 12.1445 2ZM8.14453 14C6.81845 14 5.54668 14.5268 4.609 15.4645C3.67132 16.4021 3.14453 17.6739 3.14453 19V21C3.14453 21.5523 3.59225 22 4.14453 22C4.69682 22 5.14453 21.5523 5.14453 21V19C5.14453 18.2043 5.4606 17.4413 6.02321 16.8787C6.58582 16.3161 7.34888 16 8.14453 16H16.1445C16.9402 16 17.7032 16.3161 18.2659 16.8787C18.8285 17.4413 19.1445 18.2044 19.1445 19V21C19.1445 21.5523 19.5922 22 20.1445 22C20.6968 22 21.1445 21.5523 21.1445 21V19C21.1445 17.6739 20.6177 16.4021 19.6801 15.4645C18.7424 14.5268 17.4706 14 16.1445 14H8.14453Z" fill="black"/>
</svg>
