<svg width="24" height="24" viewBox="0 0 24 24" fill="none" xmlns="http://www.w3.org/2000/svg">
<path fill-rule="evenodd" clip-rule="evenodd" d="M21.2815 18.7393C20.7762 17.5424 20.0429 16.4553 19.1225 15.5384C18.2049 14.6189 17.118 13.8857 15.9216 13.3795C15.9163 13.3768 15.9109 13.3748 15.9056 13.3728L15.9056 13.3728L15.9056 13.3728C15.9002 13.3708 15.8948 13.3688 15.8895 13.3661C17.5582 12.1607 18.6431 10.1973 18.6431 7.98215C18.6431 4.31251 15.6698 1.33929 12.0002 1.33929C8.33056 1.33929 5.35735 4.31251 5.35735 7.98215C5.35735 10.1973 6.44217 12.1607 8.11092 13.3688C8.10556 13.3714 8.10021 13.3734 8.09485 13.3755C8.08949 13.3775 8.08414 13.3795 8.07878 13.3822C6.87878 13.8884 5.80199 14.6143 4.87789 15.5411C3.95836 16.4587 3.22522 17.5456 2.71896 18.742C2.22161 19.9132 1.95337 21.1689 1.92878 22.4411C1.92806 22.4697 1.93308 22.4981 1.94353 22.5247C1.95397 22.5513 1.96964 22.5756 1.98961 22.5961C2.00958 22.6166 2.03345 22.6328 2.0598 22.6439C2.08616 22.655 2.11447 22.6607 2.14306 22.6607H3.75021C3.77384 22.6607 3.7965 22.657 3.81766 22.65H20.182C20.2033 22.657 20.2263 22.6607 20.2502 22.6607H21.8573C21.8859 22.6607 21.9143 22.655 21.9406 22.6439C21.967 22.6328 21.9908 22.6166 22.0108 22.5961C22.0308 22.5756 22.0464 22.5513 22.0569 22.5247C22.0673 22.4981 22.0724 22.4697 22.0716 22.4411C22.0449 21.1607 21.7797 19.9152 21.2815 18.7393Z" fill="white"/>
</svg>
