<svg width="80" height="80" viewBox="0 0 80 80" fill="none" xmlns="http://www.w3.org/2000/svg">
<circle cx="40" cy="40" r="40" fill="#067655" fill-opacity="0.2"/>
<circle cx="40" cy="39.6364" r="30" fill="#067655"/>
<path d="M36.4831 46.6276L36.8 46.279V44.56L31.6083 33.6H29.1917L24 44.56V46.3628L24.2823 46.6691C25.0575 47.5086 25.998 48.1787 27.0445 48.6374C28.0911 49.096 29.2212 49.3334 30.3639 49.3346H30.3919C31.5392 49.3295 32.6731 49.0863 33.7216 48.6203C34.7701 48.1543 35.7104 47.4758 36.4831 46.6276ZM34.6667 45.4405C33.5285 46.5709 31.9887 47.2041 30.3846 47.2014H30.3626C28.7867 47.2093 27.2697 46.603 26.1333 45.5111V45.04L30.4 36.0325L34.6667 45.04V45.4405ZM50.8083 33.6H48.3917L43.2 44.56V46.3628L43.4823 46.6691C44.2575 47.5086 45.198 48.1787 46.2445 48.6374C47.2911 49.096 48.4212 49.3334 49.5639 49.3346H49.5919C50.7393 49.3295 51.8731 49.0862 52.9216 48.6202C53.9701 48.1543 54.9105 47.4757 55.6831 46.6274L56 46.279V44.56L50.8083 33.6ZM53.8667 45.4405C52.7285 46.5709 51.1887 47.2041 49.5846 47.2014H49.5626C47.9867 47.2093 46.4697 46.603 45.3333 45.5111V45.04L49.6 36.0325L53.8667 45.04V45.4405Z" fill="white"/>
<path d="M41.0668 33.9773C41.6602 33.7989 42.2001 33.4762 42.6383 33.0381C43.0764 32.6 43.3991 32.0601 43.5774 31.4667H50.6668V29.3333H43.5774C43.3478 28.5629 42.8756 27.8872 42.2311 27.4067C41.5865 26.9262 40.8041 26.6667 40.0002 26.6667C39.1962 26.6667 38.4138 26.9262 37.7692 27.4067C37.1247 27.8872 36.6525 28.5629 36.4229 29.3333H29.3335V31.4667H36.4229C36.6013 32.0601 36.9239 32.6 37.3621 33.0381C37.8002 33.4762 38.3401 33.7989 38.9335 33.9773V51.7333H32.0002V53.8667H48.0002V51.7333H41.0668V33.9773ZM38.4002 30.4C38.4002 30.0836 38.494 29.7742 38.6698 29.5111C38.8456 29.248 39.0955 29.0429 39.3879 28.9218C39.6802 28.8007 40.0019 28.769 40.3123 28.8308C40.6227 28.8925 40.9078 29.0449 41.1315 29.2686C41.3553 29.4924 41.5077 29.7775 41.5694 30.0879C41.6312 30.3982 41.5995 30.7199 41.4784 31.0123C41.3573 31.3047 41.1522 31.5545 40.8891 31.7304C40.626 31.9062 40.3166 32 40.0002 32C39.5758 32 39.1689 31.8314 38.8688 31.5314C38.5687 31.2313 38.4002 30.8244 38.4002 30.4Z" fill="white"/>
</svg>
